<?xml version="1.0" standalone="no"?>
<!DOCTYPE svg PUBLIC "-//W3C//DTD SVG 1.1//EN" "http://www.w3.org/Graphics/SVG/1.1/DTD/svg11.dtd" >
<svg xmlns="http://www.w3.org/2000/svg" xmlns:xlink="http://www.w3.org/1999/xlink" version="1.1">
<metadata></metadata>
<defs>
<font id="postmates_stdbold" horiz-adv-x="1284" >
<font-face units-per-em="2048" ascent="1638" descent="-410" />
<missing-glyph horiz-adv-x="479" />
<glyph horiz-adv-x="0" />
<glyph horiz-adv-x="682" />
<glyph horiz-adv-x="53" />
<glyph horiz-adv-x="53" />
<glyph unicode="&#xd;" horiz-adv-x="53" />
<glyph unicode=" "  horiz-adv-x="479" />
<glyph unicode="&#x09;" horiz-adv-x="479" />
<glyph unicode="&#xa0;" horiz-adv-x="479" />
<glyph unicode="!" horiz-adv-x="714" d="M164 172q0 83 55 140t137 57q80 0 137.5 -57t57.5 -140q0 -81 -57.5 -136.5t-137.5 -55.5q-82 0 -137 55t-55 137zM215 1036v406h287v-406l-41 -594h-205z" />
<glyph unicode="&#x22;" horiz-adv-x="856" d="M121 1100v342h256v-342l-33 -334h-186zM479 1100v342h256v-342l-33 -334h-186z" />
<glyph unicode="#" d="M41 385v205h246l43 241h-199v205h236l69 385h226l-70 -385h211l69 385h228l-70 -385h213v-205h-248l-43 -241h201v-205h-238l-67 -385h-227l67 385h-211l-67 -385h-228l68 385h-209zM514 590h211l43 241h-211z" />
<glyph unicode="$" d="M57 463l289 41q0 -86 49.5 -157t147.5 -99v375q-94 15 -171 43t-144 75t-104.5 121t-37.5 170q0 95 39 173t105 128t145 81t168 42v180h174v-180q126 -15 231.5 -70t173 -150t70.5 -212l-270 -41q-8 99 -65 151t-140 66v-330q86 -12 154 -30t137 -52t114.5 -81t74 -119.5 t28.5 -165.5q0 -182 -138.5 -302.5t-369.5 -137.5v-183h-174v187q-123 15 -218 63t-150.5 116.5t-84.5 143.5t-33 154zM383 1053q0 -59 37.5 -95.5t122.5 -58.5v299q-72 -11 -116 -47t-44 -98zM717 240q99 11 156 52t57 109q0 163 -213 201v-362z" />
<glyph unicode="%" horiz-adv-x="1806" d="M139 1122q0 141 100 240.5t242 99.5q141 0 241.5 -99.5t100.5 -240.5q0 -138 -100.5 -238t-241.5 -100q-142 0 -242 99.5t-100 238.5zM322 1122q0 -64 46.5 -109.5t112.5 -45.5t113 45.5t47 109.5q0 66 -47 112t-113 46t-112.5 -46t-46.5 -112zM371 0l899 1532l157 -90 l-899 -1530zM981 317q0 141 100 240.5t242 99.5q141 0 241.5 -99.5t100.5 -240.5q0 -138 -100.5 -237.5t-241.5 -99.5q-142 0 -242 99t-100 238zM1163 317q0 -64 47 -109.5t113 -45.5t113 45.5t47 109.5q0 66 -47 112t-113 46t-113 -46t-47 -112z" />
<glyph unicode="&#x26;" horiz-adv-x="1419" d="M98 414q0 126 71.5 223.5t188.5 163.5q-40 48 -60 74t-43.5 64.5t-32.5 75.5t-9 81q0 110 59 195t153 128t204 43q185 0 303.5 -109.5t118.5 -256.5q0 -66 -22.5 -122t-66 -101t-92.5 -79.5t-118 -70.5q4 -5 39 -47t77.5 -91.5t69.5 -78.5q27 101 29 231l268 -49 q-7 -85 -13 -136t-28.5 -132.5t-58.5 -151.5l233 -268h-317l-72 82q-136 -102 -344 -102q-124 0 -226 34.5t-169.5 94t-104.5 138t-37 167.5zM395 428q0 -102 71.5 -162.5t168.5 -60.5q112 0 180 65l-291 344q-129 -70 -129 -186zM489 1108q0 -50 22.5 -92.5t84.5 -112.5 q77 30 127.5 78.5t50.5 114.5q0 63 -37 102t-108 39q-59 0 -99.5 -37t-40.5 -92z" />
<glyph unicode="'" horiz-adv-x="497" d="M121 1100v342h256v-342l-33 -334h-186z" />
<glyph unicode="(" horiz-adv-x="686" d="M61 682q0 93 16 184.5t43 166.5t61.5 146t73.5 126.5t77.5 104t73 83.5t61.5 60t43 37l16 12l107 -109q-6 -6 -16.5 -17.5t-41.5 -52.5t-58.5 -86.5t-61.5 -118t-58.5 -149.5t-41.5 -179t-17 -208q0 -107 16.5 -209.5t42.5 -182t57.5 -150.5t63.5 -120.5t58 -86.5t42 -55 l17 -17l-109 -107q-10 7 -26.5 20.5t-65 60.5t-92.5 99.5t-97.5 136t-92 171.5t-65 204t-26.5 236z" />
<glyph unicode=")" horiz-adv-x="686" d="M51 -139q6 6 17 18t41.5 53.5t58.5 87.5t62.5 119.5t59 151.5t41.5 181t17 210q0 145 -30.5 282t-73.5 228.5t-86.5 162.5t-73.5 105l-31 33l107 109q10 -7 26.5 -20.5t65 -60t92.5 -98.5t97.5 -134.5t92 -169.5t65 -202.5t26.5 -234.5q0 -120 -25.5 -235.5t-66.5 -205 t-90.5 -170t-99.5 -137t-91 -98.5t-66 -62l-26 -20z" />
<glyph unicode="*" horiz-adv-x="870" d="M82 1133l45 145l123 -41l123 -55l-15 135v125h76h78v-125l-14 -135l120 55l123 41l47 -145l-129 -41l-135 -29l99 -105l71 -100l-127 -88l-71 100l-62 105l-61 -105l-70 -100l-129 88l74 100l96 105l-135 29z" />
<glyph unicode="+" horiz-adv-x="1241" d="M102 600v246h396v395h245v-395h396v-246h-396v-395h-245v395h-396z" />
<glyph unicode="," horiz-adv-x="733" d="M176 174q0 82 56 139.5t137 57.5q96 0 160.5 -75.5t64.5 -227.5q0 -83 -32 -158.5t-83 -127t-116 -82t-130 -30.5l-57 121q77 0 135 56.5t58 132.5q-82 0 -137.5 56t-55.5 138z" />
<glyph unicode="-" horiz-adv-x="933" d="M102 406v245h729v-245h-729z" />
<glyph unicode="." horiz-adv-x="704" d="M176 172q0 83 55.5 140t137.5 57q80 0 137 -57t57 -140q0 -81 -57 -136.5t-137 -55.5q-82 0 -137.5 55t-55.5 137z" />
<glyph unicode="/" horiz-adv-x="874" d="M39 0q31 55 269 719t272 723h247l-530 -1442h-258z" />
<glyph unicode="0" horiz-adv-x="1390" d="M123 713q0 131 20 240.5t64 201t110.5 154.5t162.5 98t216 35q149 0 260 -53t178.5 -151.5t100.5 -229.5t33 -295t-33 -295.5t-100.5 -231t-178.5 -153t-260 -53.5q-120 0 -216 35.5t-162 99t-110.5 155.5t-64.5 202t-20 241zM420 713q0 -257 63.5 -367t212.5 -110 q147 0 211 110.5t64 366.5q0 257 -64 365t-211 108q-150 0 -213 -107t-63 -366z" />
<glyph unicode="1" horiz-adv-x="911" d="M76 811v315l336 295h276v-1421h-287v1094z" />
<glyph unicode="2" horiz-adv-x="1210" d="M76 967q0 93 29 171.5t78 133.5t114 94t136 57.5t145 18.5q144 0 264.5 -59t190 -161.5t69.5 -224.5q0 -86 -20.5 -155t-68.5 -127t-77.5 -85.5t-93.5 -77.5q-14 -11 -21 -17l-360 -289h661v-246h-1042v246l520 459q8 7 34.5 30.5t37 32.5t33.5 31.5t33 36t26 35.5t23 40 t12.5 40.5t5.5 45.5q0 79 -61 134t-166 55q-86 0 -151.5 -70t-61.5 -201z" />
<glyph unicode="3" horiz-adv-x="1224" d="M61 446l273 50q0 -124 73 -192t177 -68q101 0 175.5 60t74.5 150q0 116 -76 184t-170 68q-78 0 -135 -55l-168 166l395 369h-504v243h821v-243l-295 -271q75 0 150 -31t137.5 -87t101.5 -145.5t39 -197.5q0 -136 -77.5 -244t-201 -165t-265.5 -57q-147 0 -266.5 58.5 t-189 165.5t-69.5 242z" />
<glyph unicode="4" horiz-adv-x="1273" d="M35 293v246l461 882h317l-461 -882h320v305h289v-305h286v-246h-286v-293h-289v293h-637z" />
<glyph unicode="5" horiz-adv-x="1232" d="M68 393l288 51q2 -34 14.5 -67t39 -66.5t77 -54t117.5 -20.5q121 0 185.5 77t64.5 193q0 109 -66 190.5t-184 81.5q-50 0 -88.5 -10.5t-64 -31t-40 -38t-30.5 -45.5l-277 58l89 710h806v-235h-571l-35 -275q37 57 120 91t157 34q98 0 186 -38.5t153 -107t103.5 -168.5 t38.5 -216q0 -124 -44.5 -225t-120 -166t-174 -100t-208.5 -35q-111 0 -203 29t-150 73t-100 101t-60.5 109t-22.5 101z" />
<glyph unicode="6" horiz-adv-x="1329" d="M123 496q0 78 28 169t80 175l357 581h305l-256 -434q49 21 119 21q132 0 241.5 -71.5t169.5 -189t60 -251.5q0 -101 -40 -194.5t-110.5 -165t-175.5 -114t-227 -42.5q-121 0 -225.5 42.5t-175 113.5t-110.5 164.5t-40 195.5zM420 496q0 -107 66.5 -183.5t187.5 -76.5 q122 0 188 76t66 184q0 107 -66 181.5t-188 74.5q-121 0 -187.5 -74.5t-66.5 -181.5z" />
<glyph unicode="7" horiz-adv-x="976" d="M-41 1176v245h987v-233l-534 -1188h-303l534 1176h-684z" />
<glyph unicode="8" horiz-adv-x="1234" d="M94 416q0 112 61 197t152 135q-176 99 -176 282q0 117 65 211.5t176 147.5t244 53t244 -53t176.5 -147.5t65.5 -211.5q0 -174 -170 -280q91 -49 150 -134t59 -200q0 -187 -152.5 -311.5t-372.5 -124.5q-145 0 -264.5 56t-188.5 156t-69 224zM391 432q0 -86 65.5 -141 t159.5 -55q95 0 161.5 55t66.5 141q0 101 -66.5 159t-161.5 58q-94 0 -159.5 -58t-65.5 -159zM418 1022q0 -78 57 -123t141 -45t141.5 45t57.5 123q0 70 -58 117t-141 47q-84 0 -141 -47t-57 -117z" />
<glyph unicode="9" horiz-adv-x="1329" d="M102 926q0 101 40 194.5t110.5 165t175.5 114t227 42.5q121 0 225.5 -42.5t175 -113.5t110.5 -164.5t40 -195.5q0 -78 -28 -169t-80 -175l-357 -582h-305l256 434q-47 -20 -119 -20q-132 0 -241.5 71.5t-169.5 189t-60 251.5zM401 926q0 -107 66 -181.5t188 -74.5 q121 0 187.5 74.5t66.5 181.5t-66.5 183.5t-187.5 76.5q-122 0 -188 -76t-66 -184z" />
<glyph unicode=":" horiz-adv-x="665" d="M139 172q0 83 55.5 140t137.5 57q80 0 137 -57t57 -140q0 -81 -57 -136.5t-137 -55.5q-82 0 -137.5 55t-55.5 137zM139 860q0 83 55.5 140t137.5 57q80 0 137 -57t57 -140q0 -81 -57 -136.5t-137 -55.5q-82 0 -137.5 55t-55.5 137z" />
<glyph unicode=";" horiz-adv-x="696" d="M139 174q0 82 56 139.5t137 57.5q96 0 160.5 -75.5t64.5 -227.5q0 -99 -53.5 -192.5t-137 -149.5t-169.5 -56l-58 121q77 0 135 56.5t58 132.5q-82 0 -137.5 56t-55.5 138zM139 860q0 83 55.5 140t137.5 57q80 0 137 -57t57 -140q0 -81 -57 -136.5t-137 -55.5 q-82 0 -137.5 55t-55.5 137z" />
<glyph unicode="&#x3c;" horiz-adv-x="1181" d="M123 598v246l936 395v-246l-645 -272l645 -272v-246z" />
<glyph unicode="=" horiz-adv-x="1097" d="M102 356v246h893v-246h-893zM102 840v245h893v-245h-893z" />
<glyph unicode="&#x3e;" horiz-adv-x="1181" d="M123 203v246l645 272l-645 272v246l936 -395v-246z" />
<glyph unicode="?" horiz-adv-x="1040" d="M0 1036q9 208 134 316t343 108q226 0 356 -113.5t130 -312.5q0 -57 -14.5 -105t-44 -87t-58.5 -65.5t-72 -59.5q-9 -7 -35 -23t-43 -29.5t-37 -34.5t-30.5 -50.5t-10.5 -65.5v-76h-286v140q0 97 40.5 158.5t114.5 111.5q17 12 47 32t40.5 27.5t29.5 22t25 22t16.5 20 t13 24t5 26t2.5 33.5q0 147 -193 147q-86 0 -131 -55.5t-45 -161.5zM283 172q0 83 55 140t137 57q80 0 137.5 -57t57.5 -140q0 -81 -57.5 -136.5t-137.5 -55.5q-82 0 -137 55t-55 137z" />
<glyph unicode="@" horiz-adv-x="1966" d="M86 508q0 167 50.5 317.5t139.5 265.5t207.5 199t259 128t289.5 44q107 0 212 -24t205 -71t185 -122.5t149.5 -171.5t101 -224.5t36.5 -275.5q0 -131 -26 -234.5t-67 -165.5t-96.5 -102.5t-108 -55.5t-107.5 -15q-169 0 -230 129q-50 -69 -133.5 -109t-181.5 -40 q-215 0 -343 143t-128 395q0 124 36.5 226t100.5 169.5t150 104.5t184 37q167 0 280 -105l13 86h209v-694q0 -65 25 -101t67 -36q24 0 50 19.5t51.5 60t42.5 115.5t17 173q0 160 -57.5 297.5t-152 227.5t-215 141t-248.5 51q-152 0 -292 -56t-246.5 -156t-170 -248.5 t-63.5 -321.5q0 -149 58 -288t156.5 -243t239 -166.5t297.5 -62.5q109 0 240 45t250 113l94 -152q-133 -86 -288 -133t-306 -47q-146 0 -285.5 43.5t-256.5 127t-205.5 196t-138.5 259t-50 308.5zM745 518q0 -160 67 -236.5t187 -76.5q112 0 175 81.5t63 231.5t-63.5 233 t-174.5 83q-119 0 -186.5 -79.5t-67.5 -236.5z" />
<glyph unicode="A" horiz-adv-x="1388" d="M37 0l524 1442h268l523 -1442h-297l-88 260h-541l-88 -260h-301zM508 506h375l-187 557z" />
<glyph unicode="B" horiz-adv-x="1384" d="M158 0v1442h651q199 0 312.5 -111t113.5 -305q0 -96 -58.5 -177t-119.5 -101q87 -29 162 -119t75 -207q0 -199 -123.5 -310.5t-334.5 -111.5h-678zM444 246h375q80 0 130 50.5t50 125.5q0 80 -47.5 137t-128.5 57h-379v-370zM444 862h357q61 0 109 45.5t48 110.5 q0 77 -43.5 127.5t-115.5 50.5h-355v-334z" />
<glyph unicode="C" horiz-adv-x="1339" d="M72 721q0 218 71.5 384t214.5 261.5t342 95.5q104 0 192 -25.5t151 -68.5t111.5 -104t78.5 -126.5t49 -140.5l-281 -51q-30 123 -106.5 191.5t-194.5 68.5q-164 0 -247.5 -124t-83.5 -361q0 -238 83.5 -361.5t247.5 -123.5q119 0 196 68t105 190l281 -52 q-17 -91 -61.5 -172t-115 -147t-175 -104.5t-230.5 -38.5q-199 0 -342 95.5t-214.5 261t-71.5 384.5z" />
<glyph unicode="D" horiz-adv-x="1433" d="M158 0v1442h565q201 -2 342 -93.5t209.5 -251.5t68.5 -376q0 -221 -65 -381t-202.5 -250t-338.5 -90h-579zM444 246h279q152 0 238 122.5t86 352.5q0 234 -85.5 354.5t-238.5 120.5h-279v-950z" />
<glyph unicode="E" horiz-adv-x="1292" d="M158 0v1442h1038v-246h-752v-332h648v-246h-648v-372h752v-246h-1038z" />
<glyph unicode="F" horiz-adv-x="1171" d="M158 0v1442h995v-246h-709v-332h607v-246h-607v-618h-286z" />
<glyph unicode="G" horiz-adv-x="1490" d="M72 721q0 179 50 321t139 233t208.5 139t261.5 48q235 0 379 -109t203 -300q-146 -24 -277 -52q-37 108 -121 156.5t-184 48.5q-178 0 -270 -114.5t-92 -370.5q0 -258 91.5 -371.5t270.5 -113.5q109 0 185 49t109.5 123.5t33.5 166.5v17h-328v246h615v-838h-205l-33 236 q-11 -37 -43 -79t-83 -83t-129.5 -67.5t-168.5 -26.5q-291 0 -451.5 201t-160.5 540z" />
<glyph unicode="H" horiz-adv-x="1439" d="M158 0v1442h286v-586h551v586h287v-1442h-287v621h-551v-621h-286z" />
<glyph unicode="I" horiz-adv-x="602" d="M158 0v1442h286v-1442h-286z" />
<glyph unicode="J" horiz-adv-x="1036" d="M41 473l287 41q0 -133 14 -182q27 -96 123 -96q81 0 110 44t29 123v1039h287v-1024q0 -78 -10.5 -139.5t-39.5 -119t-76 -95.5t-123.5 -61t-178.5 -23q-422 0 -422 493z" />
<glyph unicode="K" horiz-adv-x="1345" d="M158 0v1442h286v-615l535 615h352l-502 -582l527 -860h-332l-385 639l-195 -227v-412h-286z" />
<glyph unicode="L" horiz-adv-x="1130" d="M158 0v1442h286v-1196h650v-246h-936z" />
<glyph unicode="M" horiz-adv-x="1726" d="M158 0v1442h366l340 -1088l336 1088h369v-1442h-287v911l-283 -911h-272l-283 911v-911h-286z" />
<glyph unicode="N" horiz-adv-x="1486" d="M158 0v1442h276l608 -946v946h287v-1442h-280l-605 944v-944h-286z" />
<glyph unicode="O" horiz-adv-x="1396" d="M72 721q0 163 41 298.5t118.5 234t196.5 153.5t268 55q151 0 271.5 -55t198 -154t118.5 -234t41 -298q0 -219 -70.5 -384.5t-214 -261t-344.5 -95.5q-199 0 -341 95.5t-212.5 261t-70.5 384.5zM369 721q0 -485 327 -485q332 0 332 485t-332 485q-327 0 -327 -485z" />
<glyph unicode="P" horiz-adv-x="1275" d="M158 0v1442h633q199 0 324.5 -128t125.5 -321q0 -195 -125.5 -321.5t-324.5 -126.5h-347v-545h-286zM444 791h322q71 0 124.5 58t53.5 144t-53.5 144.5t-124.5 58.5h-322v-405z" />
<glyph unicode="Q" horiz-adv-x="1398" d="M72 721q0 163 41 298.5t118.5 234t196.5 153.5t268 55q151 0 271.5 -55t198 -154t118.5 -234t41 -298q0 -326 -156 -526l158 -154l-141 -137l-164 159q-136 -83 -326 -83q-199 0 -341 95.5t-212.5 261t-70.5 384.5zM369 721q0 -485 327 -485q69 0 127 22l-145 143 l143 138l146 -146q61 119 61 328q0 485 -332 485q-327 0 -327 -485z" />
<glyph unicode="R" horiz-adv-x="1361" d="M158 0v1442h633q199 0 324.5 -128t125.5 -321q0 -151 -77.5 -264.5t-209.5 -157.5l349 -571h-322l-328 545h-209v-545h-286zM444 791h322q71 0 124.5 58t53.5 144t-53.5 144.5t-124.5 58.5h-322v-405z" />
<glyph unicode="S" horiz-adv-x="1323" d="M78 463l289 41q0 -50 17.5 -96.5t52 -85.5t95 -62.5t138.5 -23.5q129 0 204.5 46.5t75.5 139.5q0 45 -17.5 78.5t-42 52.5t-65.5 31.5t-74 17t-81 8.5q-86 6 -161.5 22t-151.5 48t-130 77.5t-87.5 116t-33.5 158.5t33.5 161t88.5 122t127.5 83t149 49t154.5 15 q141 0 265.5 -53t204.5 -155t83 -230l-270 -41q-5 65 -32 111t-69.5 69t-86.5 33t-95 10q-69 0 -123 -12t-93.5 -48t-39.5 -93q0 -75 65.5 -115.5t219.5 -60.5q65 -7 119.5 -17t113.5 -27.5t105 -40.5t88 -58t70 -78.5t44.5 -103t16.5 -130.5q0 -195 -158 -318.5 t-417 -123.5q-102 0 -189 20.5t-149.5 56.5t-111 82.5t-78 101.5t-45.5 110t-19 112z" />
<glyph unicode="T" horiz-adv-x="1202" d="M39 1196v246h1124v-246h-418v-1196h-286v1196h-420z" />
<glyph unicode="U" horiz-adv-x="1425" d="M150 492v950h286v-950q0 -119 78 -187.5t201 -68.5q121 0 197.5 68.5t76.5 187.5v950h287v-950q0 -122 -45 -221t-122.5 -161.5t-178.5 -96t-215 -33.5t-215.5 33.5t-180 96t-124 161.5t-45.5 221z" />
<glyph unicode="V" horiz-adv-x="1380" d="M37 1442h299l350 -1028l352 1028h305l-522 -1442h-270z" />
<glyph unicode="W" horiz-adv-x="1935" d="M55 1442h297q16 -91 84 -498t84 -498l248 996h358l250 -1002l213 1002h293l-326 -1442h-331l-277 1034q-41 -149 -274 -1034h-336z" />
<glyph unicode="X" horiz-adv-x="1329" d="M61 0l445 723l-445 719h320l283 -469l282 469h318l-443 -719l447 -723h-322l-282 469l-283 -469h-320z" />
<glyph unicode="Y" horiz-adv-x="1251" d="M25 1442h319l283 -484l282 484h318l-457 -744v-698h-287v700z" />
<glyph unicode="Z" horiz-adv-x="1212" d="M84 0v246l711 950h-709v246h1042v-246l-706 -950h708v-246h-1046z" />
<glyph unicode="[" horiz-adv-x="737" d="M154 -246v1848h512v-193h-267v-1460h267v-195h-512z" />
<glyph unicode="\" horiz-adv-x="876" d="M47 1442h248l543 -1442h-260z" />
<glyph unicode="]" horiz-adv-x="737" d="M72 -51h266v1460h-266v193h512v-1848h-512v195z" />
<glyph unicode="^" horiz-adv-x="1118" d="M102 721l344 721h226l344 -721h-225l-232 485l-231 -485h-226z" />
<glyph unicode="_" horiz-adv-x="1075" d="M72 0v195h932v-195h-932z" />
<glyph unicode="`" horiz-adv-x="544" d="M61 1442h269l153 -297h-207z" />
<glyph unicode="a" horiz-adv-x="1167" d="M78 317q0 130 117.5 225t316.5 95h231v37q0 25 -9 50.5t-28.5 50.5t-58 40.5t-90.5 15.5q-78 0 -139 -42.5t-64 -114.5l-245 41q24 167 144 254.5t304 87.5q220 0 341.5 -105.5t121.5 -306.5v-360q0 -72 45 -72q35 0 51 8v-211q-82 -20 -158 -20q-74 0 -121 33.5 t-67 91.5q-36 -55 -120 -95t-187 -40q-177 0 -281 92.5t-104 244.5zM354 317q0 -46 35 -79t111 -33q105 0 174 57t69 131v49h-200q-55 0 -94.5 -12.5t-59 -33t-27.5 -40t-8 -39.5z" />
<glyph unicode="b" horiz-adv-x="1247" d="M152 0v1442h276v-539q33 65 116.5 109.5t164.5 44.5q208 0 328 -148t120 -391q0 -238 -126 -388t-322 -150q-102 0 -176 43t-105 110l-20 -133h-256zM428 518q0 -155 60 -234t165 -79q103 0 165.5 79.5t62.5 233.5q0 151 -62.5 230t-165.5 79q-104 0 -164.5 -78 t-60.5 -231z" />
<glyph unicode="c" horiz-adv-x="1140" d="M90 518q0 242 133 390.5t359 148.5q190 0 308 -95.5t159 -250.5l-275 -52q-22 85 -74 128.5t-116 43.5q-111 0 -164 -84t-53 -229q0 -146 53 -229.5t164 -83.5q71 0 123 43.5t75 126.5l273 -51q-33 -148 -157 -246t-316 -98q-227 0 -359.5 147t-132.5 391z" />
<glyph unicode="d" horiz-adv-x="1228" d="M90 518q0 243 120.5 391t328.5 148q81 0 164 -44.5t116 -109.5v539h277v-1442h-256l-21 133q-31 -67 -104.5 -110t-175.5 -43q-196 0 -322.5 150t-126.5 388zM367 518q0 -154 62 -233.5t165 -79.5q105 0 165 79t60 234q0 153 -60.5 231t-164.5 78q-103 0 -165 -79 t-62 -230z" />
<glyph unicode="e" horiz-adv-x="1163" d="M90 518q0 240 135 389.5t355 149.5q219 0 350 -137.5t131 -366.5q0 -54 -8 -111h-684q5 -100 70 -168.5t157 -68.5q161 0 235 166l250 -80q-25 -62 -63 -114.5t-95.5 -98.5t-141 -72t-185.5 -26q-222 0 -364 150t-142 388zM385 637h385q-8 89 -57 141.5t-133 52.5 q-81 0 -135 -57.5t-60 -136.5z" />
<glyph unicode="f" horiz-adv-x="735" d="M51 842v194h172v115q0 291 303 291h179v-225h-140q-65 0 -65 -84v-97h172v-194h-172v-842h-277v842h-172z" />
<glyph unicode="g" horiz-adv-x="1175" d="M90 -86q0 66 31.5 114.5t75.5 73.5q-56 53 -56 160q0 54 29 107t70 84q-40 37 -68.5 97t-28.5 126q0 166 118 273.5t325 107.5q148 0 248 -68q71 68 227 68v-215q-52 0 -82 -23q49 -69 49 -141q0 -73 -26 -139t-77 -120.5t-138.5 -87t-200.5 -32.5q-92 0 -170 31 q-29 -25 -29 -70q0 -33 28 -49t95 -16h156q36 0 54.5 -0.5t58 -2.5t63.5 -6.5t60 -14.5t58.5 -23.5t48.5 -35t41 -49t25 -65.5t10 -84q0 -158 -131.5 -250t-367.5 -92q-241 0 -368.5 89t-127.5 253zM367 -82q0 -121 219 -121q111 0 167 32.5t56 88.5q0 23 -10 38t-25.5 23.5 t-46 13.5t-61 6t-80.5 1h-170q-49 -22 -49 -82zM420 678q0 -22 9 -47t27 -49.5t52 -41t78 -16.5q45 0 79 16t52 41.5t26.5 50t8.5 46.5q0 24 -8.5 48.5t-26.5 49t-52 40t-79 15.5q-84 0 -125 -49.5t-41 -103.5z" />
<glyph unicode="h" horiz-adv-x="1232" d="M152 0v1442h276v-537q26 58 95.5 105t156.5 47q226 -1 323 -118.5t97 -371.5v-567h-275v567q0 137 -50 200.5t-150 63.5q-95 0 -146 -66t-51 -198v-567h-276z" />
<glyph unicode="i" horiz-adv-x="579" d="M131 1303q0 67 46 113t112 46t113 -46t47 -113q0 -66 -47 -112t-113 -46t-112 46t-46 112zM152 0v1036h276v-1036h-276z" />
<glyph unicode="j" horiz-adv-x="587" d="M-53 -180h137q66 0 66 84v1132h276v-1155q0 -139 -72 -213t-231 -74h-176v226zM129 1303q0 67 46 113t112 46t112.5 -46t46.5 -113q0 -66 -46.5 -112t-112.5 -46t-112 46t-46 112z" />
<glyph unicode="k" horiz-adv-x="1196" d="M152 0v1442h264v-725l329 319h377l-379 -360l412 -676h-301l-299 498l-139 -131v-367h-264z" />
<glyph unicode="l" horiz-adv-x="612" d="M152 276v1166h276v-1147q0 -46 15.5 -67t54.5 -21l63 8v-215q-127 -12 -143 -12q-266 0 -266 288z" />
<glyph unicode="m" horiz-adv-x="1798" d="M152 0v1036h256l20 -131q29 63 97.5 107.5t174.5 44.5q119 0 205 -44.5t111 -107.5q32 63 103.5 107.5t164.5 44.5q109 0 183.5 -31t117.5 -95t61.5 -149.5t18.5 -206.5v-575h-276v575q0 75 -15 130t-54.5 92t-102.5 37q-95 0 -132.5 -69t-37.5 -190v-575h-277v575 q0 57 -7.5 100t-26 80t-53.5 56.5t-85 19.5q-170 0 -170 -256v-575h-276z" />
<glyph unicode="n" horiz-adv-x="1232" d="M152 0v1036h256l20 -131q26 58 95.5 105t156.5 47q226 -1 323 -118.5t97 -371.5v-567h-275v567q0 137 -50 200.5t-150 63.5q-95 0 -146 -66t-51 -198v-567h-276z" />
<glyph unicode="o" horiz-adv-x="1185" d="M90 518q0 241 137 390t367 149q226 0 364 -150t138 -389q0 -240 -138 -389t-364 -149q-230 0 -367 148.5t-137 389.5zM367 518q0 -155 61 -234t166 -79q102 0 163.5 79.5t61.5 233.5q0 152 -61.5 232.5t-163.5 80.5q-104 0 -165.5 -80t-61.5 -233z" />
<glyph unicode="p" horiz-adv-x="1247" d="M152 -406v1442h256l20 -133q31 67 105 110.5t176 43.5q196 0 322 -150.5t126 -388.5q0 -243 -120 -390.5t-328 -147.5q-81 0 -164.5 44t-116.5 109v-539h-276zM428 518q0 -153 60.5 -231t164.5 -78q103 0 165.5 79t62.5 230q0 154 -62.5 233.5t-165.5 79.5 q-105 0 -165 -79t-60 -234z" />
<glyph unicode="q" horiz-adv-x="1247" d="M90 518q0 238 126.5 388.5t322.5 150.5q102 0 175.5 -43.5t104.5 -110.5l21 133h256v-1442h-277v539q-33 -65 -116 -109t-164 -44q-208 0 -328.5 148t-120.5 390zM367 518q0 -151 62 -230t165 -79q104 0 164.5 78t60.5 231q0 155 -60 234t-165 79q-103 0 -165 -79.5 t-62 -233.5z" />
<glyph unicode="r" horiz-adv-x="778" d="M152 0v1036h256l20 -133q17 54 86 104t154 50q27 0 67 -10v-216h-108q-199 0 -199 -278v-553h-276z" />
<glyph unicode="s" horiz-adv-x="1091" d="M86 295l270 51q42 -141 193 -141q18 0 42.5 4t58 15t56.5 36.5t23 61.5q0 22 -11.5 38t-27 25t-47 17t-54.5 11.5t-67 8.5q-161 21 -232 50q-173 69 -173 263q0 136 121 229t294 93q85 0 158 -16.5t135 -52t105 -97.5t59 -146l-268 -51q-14 75 -59 106t-121 31 q-62 0 -105 -29.5t-43 -66.5q0 -42 39.5 -58.5t124.5 -25.5q80 -8 139.5 -19.5t121 -35.5t100.5 -58t63.5 -89t24.5 -127q0 -165 -130 -253.5t-327 -88.5q-187 0 -309 82.5t-154 232.5z" />
<glyph unicode="t" horiz-adv-x="792" d="M47 842v194h170v289h277v-289h204v-194h-204v-547q0 -46 15.5 -67t53.5 -21l105 8v-215q-127 -12 -185 -12q-266 0 -266 288v566h-170z" />
<glyph unicode="u" horiz-adv-x="1232" d="M133 469v567h275v-567q0 -137 50 -200.5t150 -63.5q95 0 146 66t51 198v567h276v-1036h-256l-20 131q-26 -58 -95.5 -104.5t-156.5 -46.5q-226 1 -323 118t-97 371z" />
<glyph unicode="v" horiz-adv-x="1138" d="M43 1036h289l239 -712l236 712h289l-391 -1036h-269z" />
<glyph unicode="w" horiz-adv-x="1712" d="M68 1036h288l129 -684l213 684h293l219 -686l146 686h289l-259 -1036h-321l-219 694l-215 -694h-322z" />
<glyph unicode="x" horiz-adv-x="1114" d="M49 0l344 514l-344 522h309l191 -301l194 301h308l-344 -522l344 -514h-316l-184 289l-184 -289h-318z" />
<glyph unicode="y" horiz-adv-x="1105" d="M35 1036h289l239 -712l236 712h288l-436 -1155q-22 -58 -43 -98.5t-50.5 -78.5t-65.5 -60.5t-86.5 -36t-114.5 -13.5h-215v226h215q33 0 61 22t41 62l33 96z" />
<glyph unicode="z" horiz-adv-x="1052" d="M100 0v225l498 586h-477v225h815v-225l-492 -586h512v-225h-856z" />
<glyph unicode="{" horiz-adv-x="688" d="M82 602v156q121 0 121 90v495q0 52 13 95.5t41.5 81t81 58.5t124.5 21h153v-194h-100q-32 0 -49.5 -22t-17.5 -56v-428q0 -167 -115 -221q115 -47 115 -215v-436q0 -31 18 -52.5t49 -21.5h100v-199h-153q-141 0 -200.5 68t-59.5 188v502q0 90 -121 90z" />
<glyph unicode="|" horiz-adv-x="540" d="M147 -246v1848h246v-1848h-246z" />
<glyph unicode="}" horiz-adv-x="688" d="M72 -47h100q31 0 49.5 21.5t18.5 52.5v436q0 168 114 215q-114 54 -114 221v428q0 34 -18 56t-50 22h-100v194h153q72 0 124.5 -21t81 -58.5t41.5 -81t13 -95.5v-495q0 -90 121 -90v-156q-121 0 -121 -90v-502q0 -120 -59.5 -188t-200.5 -68h-153v199z" />
<glyph unicode="~" horiz-adv-x="1167" d="M102 692q7 7 33.5 37.5t33.5 38t30 32t32.5 31t30 24t33.5 22.5t32.5 14t38.5 11.5t40 2.5q46 0 100.5 -21.5t96 -48t92 -48t89.5 -21.5q28 0 54.5 22t89.5 91l137 -125q-8 -9 -30.5 -34.5t-30 -33.5t-27 -29t-28 -28.5t-26.5 -23t-29 -21.5t-28.5 -16t-32 -13.5 t-32.5 -6.5t-37 -3q-47 0 -101.5 21.5t-96 48t-92 48t-89.5 21.5q-28 0 -54 -21.5t-89 -91.5z" />
<glyph unicode="&#xa1;" horiz-adv-x="665" d="M139 1270q0 81 57.5 136.5t137.5 55.5q82 0 137 -55t55 -137q0 -83 -55 -140t-137 -57q-80 0 -137.5 57t-57.5 140zM188 0v406l41 593h205l41 -593v-406h-287z" />
<glyph unicode="&#xa2;" d="M154 518q0 216 109.5 358.5t299.5 170.5v188h170v-184q155 -19 253.5 -111t135.5 -229q-140 -30 -274 -52q-30 114 -115 146v-582q95 38 123 152q20 -3 138.5 -25.5t133.5 -25.5q-29 -132 -133 -227t-262 -111v-185h-170v187q-190 28 -299.5 170.5t-109.5 359.5zM428 518 q0 -108 35 -183t100 -104v570q-65 -29 -100 -103.5t-35 -179.5z" />
<glyph unicode="&#xa3;" d="M121 0v246h67q111 0 111 123v268h-178v205h178v186q0 122 47.5 219t145 156t231.5 59q199 0 318.5 -104t119.5 -318l-287 -49q0 69 -10 113t-31.5 65.5t-46.5 29t-63 7.5q-73 0 -105 -43t-32 -135v-186h219v-205h-219v-268q0 -82 -35 -123h323v256h287v-502h-1040z" />
<glyph unicode="&#xa4;" d="M68 70l145 143q-74 127 -74 305q0 176 74 303l-145 146l116 116l135 -135q131 109 324 109q190 0 318 -109l137 135l116 -116l-145 -144q76 -130 76 -305q0 -177 -76 -307l145 -141l-116 -117l-137 133q-128 -106 -318 -106q-193 0 -324 106l-135 -133q-8 9 -58 58.5 t-58 58.5zM416 518q0 -155 61 -234t166 -79q102 0 163.5 79.5t61.5 233.5q0 152 -61.5 232.5t-163.5 80.5q-104 0 -165.5 -80t-61.5 -233z" />
<glyph unicode="&#xa5;" d="M39 1442h315l287 -484l287 484h315l-364 -596h211v-195h-306v-104h306v-195h-306v-352h-288v352h-301v195h301v104h-301v195h206z" />
<glyph unicode="&#xa6;" horiz-adv-x="561" d="M147 -246v844h267v-844h-267zM147 756v846h267v-846h-267z" />
<glyph unicode="&#xa7;" horiz-adv-x="1339" d="M127 578q0 53 16 100t49 88t57 64t66 59q-51 90 -51 186q0 99 50.5 187t144.5 144t209 56q55 0 109 -11.5t111.5 -41t101 -73.5t73.5 -116t33 -163l-277 -45q0 105 -38.5 149.5t-96.5 44.5q-64 0 -98.5 -41t-34.5 -90q0 -75 48 -128.5t140 -76.5q55 -13 98 -26 t94.5 -33.5t89.5 -43.5t76 -57.5t61.5 -74.5t38.5 -94t15 -117q0 -56 -18 -105t-51 -85.5t-57 -57t-58 -43.5q47 -81 47 -184q0 -152 -115 -264.5t-292 -112.5q-83 0 -155.5 24t-133.5 73t-98 134t-41 197l274 43q0 -111 36 -163t109 -52q59 0 94 37.5t35 83.5q0 89 -48 140 t-154 81q-169 48 -230 75q-163 72 -209 203q-20 58 -20 130zM424 592q0 -42 22.5 -75t70.5 -57t76.5 -34.5t85.5 -26.5q9 -3 13 -4q115 -31 174 -71q49 53 49 114q0 35 -19.5 65t-45 50t-67 39t-68.5 28t-66 21q-119 33 -178 72q-47 -51 -47 -121z" />
<glyph unicode="&#xa8;" horiz-adv-x="880" d="M61 1303q0 67 46 113t112 46t113 -46t47 -113q0 -66 -47 -112t-113 -46t-112 46t-46 112zM502 1303q0 67 45.5 113t111.5 46t113 -46t47 -113q0 -66 -47 -112t-113 -46t-111.5 46t-45.5 112z" />
<glyph unicode="&#xa9;" horiz-adv-x="1603" d="M49 721q0 151 59.5 288.5t160 236.5t240 157.5t292.5 58.5q205 0 378 -99t274 -269.5t101 -372.5t-101 -372.5t-274 -269.5t-378 -99q-153 0 -292.5 58.5t-240 157.5t-160 236.5t-59.5 288.5zM184 721q0 -165 82.5 -305t225 -221.5t309.5 -81.5t309.5 81.5t225.5 221.5 t83 305q0 123 -49 235t-132 193.5t-197.5 129.5t-239.5 48t-239.5 -48t-197 -129.5t-131.5 -193.5t-49 -235zM408 721q0 200 99 322t277 122q78 0 140 -23t103 -63t67 -87.5t41 -104.5l-168 -31q-19 74 -66 115t-117 41q-98 0 -148 -74.5t-50 -216.5q0 -143 50 -217t148 -74 q72 0 118.5 41t64.5 113l168 -31q-22 -116 -113 -196.5t-238 -80.5q-178 0 -277 122.5t-99 322.5z" />
<glyph unicode="&#xaa;" horiz-adv-x="790" d="M72 1053q0 74 67 123t187 49h112v24q0 34 -23 59t-77 25q-42 0 -68.5 -21.5t-27.5 -62.5l-152 31q13 91 81.5 136.5t166.5 45.5q122 0 189 -58t67 -169v-201q0 -39 27 -39q5 0 15 1t11 1v-118q-49 -13 -88 -13q-40 0 -67.5 20.5t-36.5 53.5q-22 -29 -68.5 -52.5 t-101.5 -23.5q-99 0 -156 51.5t-57 137.5zM225 1053q0 -26 19.5 -44t62.5 -18q56 0 93.5 31.5t37.5 71.5v20h-108q-59 0 -82 -18.5t-23 -42.5z" />
<glyph unicode="&#xab;" horiz-adv-x="1030" d="M78 430v209l368 340v-277l-176 -167l176 -168v-279zM508 430v209l369 340v-277l-177 -167l177 -168v-279z" />
<glyph unicode="&#xac;" horiz-adv-x="1298" d="M102 401v246h1022v-647h-286v401h-736z" />
<glyph unicode="&#xad;" horiz-adv-x="933" d="M102 406v245h729v-245h-729z" />
<glyph unicode="&#xae;" horiz-adv-x="1603" d="M49 721q0 151 59.5 288.5t160 236.5t240 157.5t292.5 58.5q205 0 378 -99t274 -269.5t101 -372.5t-101 -372.5t-274 -269.5t-378 -99q-153 0 -292.5 58.5t-240 157.5t-160 236.5t-59.5 288.5zM184 721q0 -165 82.5 -305t225 -221.5t309.5 -81.5t309.5 81.5t225.5 221.5 t83 305q0 123 -49 235t-132 193.5t-197.5 129.5t-239.5 48t-239.5 -48t-197 -129.5t-131.5 -193.5t-49 -235zM496 293v864h378q120 0 195.5 -76.5t75.5 -191.5q0 -90 -46 -158t-126 -96l209 -342h-193l-196 325h-125v-325h-172zM668 766h192q42 0 74.5 36t32.5 87t-32.5 86 t-74.5 35h-192v-244z" />
<glyph unicode="&#xaf;" horiz-adv-x="933" d="M102 1145v164h729v-164h-729z" />
<glyph unicode="&#xb0;" horiz-adv-x="1091" d="M205 1104q0 141 99.5 239.5t242.5 98.5q141 0 240.5 -98.5t99.5 -239.5q0 -138 -99.5 -237t-240.5 -99q-142 0 -242 99t-100 237zM387 1104q0 -65 47 -111.5t113 -46.5t113 46.5t47 111.5q0 66 -47 112t-113 46t-113 -46t-47 -112z" />
<glyph unicode="&#xb1;" horiz-adv-x="1241" d="M102 0v233h1037v-233h-1037zM102 807v233h402v402h233v-402h402v-233h-402v-401h-233v401h-402z" />
<glyph unicode="&#xb2;" horiz-adv-x="786" d="M102 1186q0 87 46 152t111.5 94.5t137.5 29.5q125 0 208 -72t83 -180q0 -75 -46.5 -145.5t-100.5 -116.5l-174 -151h340v-150h-592v150l291 266q27 26 43 43.5t31.5 47t15.5 56.5q0 40 -26.5 71.5t-72.5 31.5q-61 0 -86 -40t-22 -118z" />
<glyph unicode="&#xb3;" horiz-adv-x="786" d="M106 901l160 29q0 -68 36.5 -110t86.5 -42t86.5 35.5t36.5 87.5q0 57 -37.5 91t-83.5 34q-42 0 -72 -35l-106 107l190 190h-256v154h490v-127l-158 -158q87 -17 144 -80.5t57 -175.5q0 -119 -83.5 -196.5t-205.5 -77.5q-126 0 -205.5 75.5t-79.5 198.5z" />
<glyph unicode="&#xb4;" horiz-adv-x="544" d="M61 1145l154 297h268l-215 -297h-207z" />
<glyph unicode="&#xb5;" horiz-adv-x="1329" d="M152 -406v1442h276v-512q0 -173 49 -245t164 -72q116 0 164.5 78t48.5 254v497h274v-770q0 -33 13.5 -48t42.5 -9l43 8v-217q-84 -20 -158 -20q-66 0 -113.5 32.5t-72.5 83.5q-47 -56 -101.5 -86t-138.5 -30q-80 0 -135.5 33t-79.5 77v-496h-276z" />
<glyph unicode="&#xb6;" horiz-adv-x="1355" d="M51 993q0 192 130 320.5t331 128.5h711v-197h-97v-1648h-225v1648h-96v-1648h-227v948h-66q-202 0 -331.5 127t-129.5 321z" />
<glyph unicode="&#xb7;" horiz-adv-x="665" d="M139 721q0 83 55.5 140t137.5 57q80 0 137 -57t57 -140q0 -81 -57 -137t-137 -56q-82 0 -137.5 55.5t-55.5 137.5z" />
<glyph unicode="&#xb8;" horiz-adv-x="550" d="M61 -244l117 19q0 -39 26.5 -63.5t65.5 -24.5q34 0 54 24.5t20 52.5q0 40 -20.5 64.5t-51.5 24.5q-30 0 -53 -21l-63 64l151 137h121l-115 -103q66 0 121 -43.5t55 -122.5q0 -83 -56 -137.5t-163 -54.5q-95 0 -152 52t-57 132z" />
<glyph unicode="&#xb9;" horiz-adv-x="612" d="M98 1040v205l189 197h172v-795h-187v553z" />
<glyph unicode="&#xba;" horiz-adv-x="780" d="M109 1165q0 134 76 215.5t206 81.5q127 0 203 -82.5t76 -214.5q0 -135 -75.5 -217t-203.5 -82q-131 0 -206.5 82t-75.5 217zM283 1165q0 -72 30.5 -118t77.5 -46q49 0 78 45.5t29 118.5q0 70 -29 116t-78 46q-47 0 -77.5 -46.5t-30.5 -115.5z" />
<glyph unicode="&#xbb;" horiz-adv-x="1030" d="M154 88v279l176 168l-176 167v277l368 -340v-209zM584 88v279l176 168l-176 167v277l368 -340v-209z" />
<glyph unicode="&#xbc;" horiz-adv-x="1652" d="M100 1040v205l189 197h172v-795h-187v553zM264 8l885 1514l158 -90l-885 -1512zM860 170v154l242 475h196l-239 -475h153v176h185v-176h168v-154h-168v-170h-185v170h-352z" />
<glyph unicode="&#xbd;" horiz-adv-x="1607" d="M100 1040v205l189 197h172v-795h-187v553zM236 8l884 1514l158 -90l-885 -1512zM915 539q0 87 46 152t111.5 94.5t137.5 29.5q125 0 208 -72t83 -180q0 -75 -46.5 -145.5t-100.5 -116.5l-174 -151h340v-150h-592v150l291 266q27 26 43 43.5t31.5 47t15.5 56.5 q0 40 -26.5 71.5t-72.5 31.5q-61 0 -86 -40t-22 -118z" />
<glyph unicode="&#xbe;" horiz-adv-x="1765" d="M102 901l160 29q0 -68 36.5 -110t86.5 -42t86.5 35.5t36.5 87.5q0 57 -37.5 91t-83.5 34q-42 0 -72 -35l-106 107l190 190h-256v154h490v-127l-158 -158q87 -17 144 -80.5t57 -175.5q0 -119 -83.5 -196.5t-205.5 -77.5q-126 0 -205.5 75.5t-79.5 198.5zM334 8l885 1514 l159 -90l-884 -1512zM948 170v154l242 475h196l-239 -475h153v176h185v-176h168v-154h-168v-170h-185v170h-352z" />
<glyph unicode="&#xbf;" horiz-adv-x="1077" d="M78 406q0 108 48.5 178.5t139.5 138.5q9 7 35 23t43 29.5t37 34.5t30.5 50.5t10.5 65.5v75h287v-139q0 -97 -41 -158.5t-115 -111.5q-17 -12 -47 -32t-40 -27.5t-29.5 -22t-25 -21.5t-16 -20t-13 -24.5t-5 -26t-2.5 -33.5q0 -147 192 -147q86 0 131 55.5t45 161.5 l297 -52q-9 -208 -133.5 -315.5t-343.5 -107.5q-226 0 -355.5 113.5t-129.5 312.5zM371 1268q0 81 57 136.5t137 55.5q82 0 137.5 -55t55.5 -137q0 -83 -55.5 -140t-137.5 -57q-80 0 -137 57t-57 140z" />
<glyph unicode="&#xc0;" horiz-adv-x="1388" d="M37 0l524 1442h268l523 -1442h-297l-88 260h-541l-88 -260h-301zM379 1847h268l154 -297h-207zM508 506h375l-187 557z" />
<glyph unicode="&#xc1;" horiz-adv-x="1388" d="M37 0l524 1442h268l523 -1442h-297l-88 260h-541l-88 -260h-301zM508 506h375l-187 557zM592 1550l153 297h269l-215 -297h-207z" />
<glyph unicode="&#xc2;" horiz-adv-x="1388" d="M37 0l524 1442h268l523 -1442h-297l-88 260h-541l-88 -260h-301zM406 1550l155 297h268l158 -297h-211l-80 154l-80 -154h-210zM508 506h375l-187 557z" />
<glyph unicode="&#xc3;" horiz-adv-x="1388" d="M37 0l524 1442h268l523 -1442h-297l-88 260h-541l-88 -260h-301zM330 1550v66q0 33 12 66t37 64.5t71.5 51t108.5 19.5q45 0 98.5 -23.5t98.5 -46.5t69 -23q35 0 61.5 21.5t26.5 71.5h154v-68q0 -32 -12.5 -65t-38.5 -64t-73 -50.5t-107 -19.5q-49 0 -103.5 22.5 t-98.5 45t-67 22.5q-35 0 -60.5 -21t-25.5 -69h-151zM508 506h375l-187 557z" />
<glyph unicode="&#xc4;" horiz-adv-x="1388" d="M37 0l524 1442h268l523 -1442h-297l-88 260h-541l-88 -260h-301zM322 1708q0 67 45.5 113.5t111.5 46.5t113 -46.5t47 -113.5q0 -66 -47 -112t-113 -46t-111.5 46t-45.5 112zM508 506h375l-187 557zM762 1708q0 67 46 113.5t112 46.5t112.5 -46.5t46.5 -113.5 q0 -66 -46.5 -112t-112.5 -46t-112 46t-46 112z" />
<glyph unicode="&#xc5;" horiz-adv-x="1388" d="M37 0l524 1442h268l523 -1442h-297l-88 260h-541l-88 -260h-301zM494 1747q0 80 59 138.5t141 58.5q84 0 142.5 -58.5t58.5 -138.5q0 -83 -58 -140t-143 -57q-82 0 -141 57t-59 140zM508 506h375l-187 557zM598 1747q0 -38 29 -66t67 -28q41 0 69 27.5t28 66.5t-28 67.5 t-69 28.5q-38 0 -67 -29t-29 -67z" />
<glyph unicode="&#xc6;" horiz-adv-x="2088" d="M0 0l791 1442h1189v-248h-737v-332h666v-246h-666v-370h737v-246h-1024v260h-518l-143 -260h-295zM573 506h383v696z" />
<glyph unicode="&#xc7;" horiz-adv-x="1339" d="M72 721q0 218 71.5 384t214.5 261.5t342 95.5q104 0 192 -25.5t151 -68.5t111.5 -104t78.5 -126.5t49 -140.5l-281 -51q-30 123 -106.5 191.5t-194.5 68.5q-164 0 -247.5 -124t-83.5 -361q0 -238 83.5 -361.5t247.5 -123.5q119 0 196 68t105 190l281 -52 q-17 -85 -56 -160.5t-100.5 -139t-152 -105.5t-199.5 -53l-59 -54q66 0 121 -43.5t55 -122.5q0 -83 -56 -137.5t-163 -54.5q-95 0 -152 52t-57 132l117 19q0 -39 26.5 -63.5t65.5 -24.5q34 0 53.5 24.5t19.5 52.5q0 41 -20 65t-51 24q-30 0 -53 -21l-64 64l94 86 q-184 12 -316 109.5t-197.5 259t-65.5 370.5z" />
<glyph unicode="&#xc8;" horiz-adv-x="1292" d="M158 0v1442h1038v-246h-752v-332h648v-246h-648v-372h752v-246h-1038zM375 1847h268l154 -297h-207z" />
<glyph unicode="&#xc9;" horiz-adv-x="1292" d="M158 0v1442h1038v-246h-752v-332h648v-246h-648v-372h752v-246h-1038zM532 1550l154 297h268l-215 -297h-207z" />
<glyph unicode="&#xca;" horiz-adv-x="1292" d="M158 0v1442h1038v-246h-752v-332h648v-246h-648v-372h752v-246h-1038zM381 1550l156 297h268l158 -297h-211l-80 154l-80 -154h-211z" />
<glyph unicode="&#xcb;" horiz-adv-x="1292" d="M158 0v1442h1038v-246h-752v-332h648v-246h-648v-372h752v-246h-1038zM293 1708q0 67 46 113.5t112 46.5t112.5 -46.5t46.5 -113.5q0 -66 -46.5 -112t-112.5 -46t-112 46t-46 112zM733 1708q0 67 46 113.5t112 46.5t113 -46.5t47 -113.5q0 -66 -47 -112t-113 -46t-112 46 t-46 112z" />
<glyph unicode="&#xcc;" horiz-adv-x="602" d="M-20 1847h268l153 -297h-206zM158 0v1442h286v-1442h-286z" />
<glyph unicode="&#xcd;" horiz-adv-x="602" d="M158 0v1442h286v-1442h-286zM201 1550l153 297h269l-215 -297h-207z" />
<glyph unicode="&#xce;" horiz-adv-x="602" d="M10 1550l156 297h268l158 -297h-211l-80 154l-80 -154h-211zM158 0v1442h286v-1442h-286z" />
<glyph unicode="&#xcf;" horiz-adv-x="602" d="M-78 1708q0 67 46 113.5t112 46.5t113 -46.5t47 -113.5q0 -66 -47 -112t-113 -46t-112 46t-46 112zM158 0v1442h286v-1442h-286zM362 1708q0 67 46 113.5t112 46.5t113 -46.5t47 -113.5q0 -66 -47 -112t-113 -46t-112 46t-46 112z" />
<glyph unicode="&#xd0;" horiz-adv-x="1478" d="M-2 662v143h223v637h565q201 0 342 -91.5t210 -252.5t69 -377q0 -221 -65 -381t-202.5 -250t-338.5 -90h-580v662h-223zM508 246h278q152 0 238 122.5t86 352.5q0 234 -85.5 354.5t-238.5 120.5h-278v-391h219v-143h-219v-416z" />
<glyph unicode="&#xd1;" horiz-adv-x="1486" d="M158 0v1442h276l608 -946v946h287v-1442h-280l-605 944v-944h-286zM365 1550v66q0 33 12 66t37 64.5t71.5 51t108.5 19.5q45 0 98.5 -23.5t98.5 -46.5t69 -23q35 0 61.5 21.5t26.5 71.5h154v-68q0 -32 -13 -65t-39 -64t-73 -50.5t-107 -19.5q-49 0 -103 22.5t-98 45 t-67 22.5q-35 0 -60.5 -21t-25.5 -69h-151z" />
<glyph unicode="&#xd2;" horiz-adv-x="1396" d="M72 721q0 163 41 298.5t118.5 234t196.5 153.5t268 55q151 0 271.5 -55t198 -154t118.5 -234t41 -298q0 -219 -70.5 -384.5t-214 -261t-344.5 -95.5q-199 0 -341 95.5t-212.5 261t-70.5 384.5zM365 1847h268l153 -297h-206zM369 721q0 -485 327 -485q332 0 332 485 t-332 485q-327 0 -327 -485z" />
<glyph unicode="&#xd3;" horiz-adv-x="1396" d="M72 721q0 163 41 298.5t118.5 234t196.5 153.5t268 55q151 0 271.5 -55t198 -154t118.5 -234t41 -298q0 -219 -70.5 -384.5t-214 -261t-344.5 -95.5q-199 0 -341 95.5t-212.5 261t-70.5 384.5zM369 721q0 -485 327 -485q332 0 332 485t-332 485q-327 0 -327 -485z M596 1550l154 297h268l-215 -297h-207z" />
<glyph unicode="&#xd4;" horiz-adv-x="1396" d="M72 721q0 163 41 298.5t118.5 234t196.5 153.5t268 55q151 0 271.5 -55t198 -154t118.5 -234t41 -298q0 -219 -70.5 -384.5t-214 -261t-344.5 -95.5q-199 0 -341 95.5t-212.5 261t-70.5 384.5zM369 721q0 -485 327 -485q332 0 332 485t-332 485q-327 0 -327 -485z M408 1550l155 297h268l158 -297h-211l-80 154l-80 -154h-210z" />
<glyph unicode="&#xd5;" horiz-adv-x="1396" d="M72 721q0 163 41 298.5t118.5 234t196.5 153.5t268 55q151 0 271.5 -55t198 -154t118.5 -234t41 -298q0 -219 -70.5 -384.5t-214 -261t-344.5 -95.5q-199 0 -341 95.5t-212.5 261t-70.5 384.5zM330 1550v66q0 33 12 66t37 64.5t71.5 51t108.5 19.5q45 0 98.5 -23.5 t98.5 -46.5t69 -23q35 0 61.5 21.5t26.5 71.5h154v-68q0 -32 -12.5 -65t-38.5 -64t-73 -50.5t-107 -19.5q-49 0 -103.5 22.5t-98.5 45t-67 22.5q-35 0 -60.5 -21t-25.5 -69h-151zM369 721q0 -485 327 -485q332 0 332 485t-332 485q-327 0 -327 -485z" />
<glyph unicode="&#xd6;" horiz-adv-x="1396" d="M72 721q0 163 41 298.5t118.5 234t196.5 153.5t268 55q151 0 271.5 -55t198 -154t118.5 -234t41 -298q0 -219 -70.5 -384.5t-214 -261t-344.5 -95.5q-199 0 -341 95.5t-212.5 261t-70.5 384.5zM319 1708q0 67 46 113.5t112 46.5t113 -46.5t47 -113.5q0 -66 -47 -112 t-113 -46t-112 46t-46 112zM369 721q0 -485 327 -485q332 0 332 485t-332 485q-327 0 -327 -485zM760 1708q0 67 46 113.5t112 46.5t112.5 -46.5t46.5 -113.5q0 -66 -46.5 -112t-112.5 -46t-112 46t-46 112z" />
<glyph unicode="&#xd7;" horiz-adv-x="1245" d="M74 375l350 346l-348 346l190 188l350 -344l351 344q6 -6 92.5 -89t101.5 -99l-352 -346l354 -344l-196 -191l-351 346l-352 -346z" />
<glyph unicode="&#xd8;" horiz-adv-x="1396" d="M72 721q0 163 41 298.5t118.5 234t196.5 153.5t268 55q141 0 258 -49l84 168l138 -68l-91 -180q118 -98 179 -255.5t61 -356.5q0 -219 -70.5 -384.5t-214 -261t-344.5 -95.5q-137 0 -254 49l-82 -168l-139 67l88 181q-116 96 -176.5 253.5t-60.5 358.5zM369 721 q0 -232 71 -348l398 803q-62 30 -142 30q-327 0 -327 -485zM559 262q56 -26 137 -26q332 0 332 485q0 222 -74 346z" />
<glyph unicode="&#xd9;" horiz-adv-x="1425" d="M150 492v950h286v-950q0 -119 78 -187.5t201 -68.5q121 0 197.5 68.5t76.5 187.5v950h287v-950q0 -122 -45 -221t-122.5 -161.5t-178.5 -96t-215 -33.5t-215.5 33.5t-180 96t-124 161.5t-45.5 221zM408 1847h268l153 -297h-206z" />
<glyph unicode="&#xda;" horiz-adv-x="1425" d="M150 492v950h286v-950q0 -119 78 -187.5t201 -68.5q121 0 197.5 68.5t76.5 187.5v950h287v-950q0 -122 -45 -221t-122.5 -161.5t-178.5 -96t-215 -33.5t-215.5 33.5t-180 96t-124 161.5t-45.5 221zM588 1550l153 297h269l-215 -297h-207z" />
<glyph unicode="&#xdb;" horiz-adv-x="1425" d="M150 492v950h286v-950q0 -119 78 -187.5t201 -68.5q121 0 197.5 68.5t76.5 187.5v950h287v-950q0 -122 -45 -221t-122.5 -161.5t-178.5 -96t-215 -33.5t-215.5 33.5t-180 96t-124 161.5t-45.5 221zM422 1550l156 297h268l158 -297h-211l-80 154l-80 -154h-211z" />
<glyph unicode="&#xdc;" horiz-adv-x="1425" d="M150 492v950h286v-950q0 -119 78 -187.5t201 -68.5q121 0 197.5 68.5t76.5 187.5v950h287v-950q0 -122 -45 -221t-122.5 -161.5t-178.5 -96t-215 -33.5t-215.5 33.5t-180 96t-124 161.5t-45.5 221zM336 1708q0 67 46 113.5t112 46.5t112.5 -46.5t46.5 -113.5 q0 -66 -46.5 -112t-112.5 -46t-112 46t-46 112zM776 1708q0 67 46 113.5t112 46.5t113 -46.5t47 -113.5q0 -66 -47 -112t-113 -46t-112 46t-46 112z" />
<glyph unicode="&#xdd;" horiz-adv-x="1216" d="M6 1442h320l282 -484l283 484h317l-456 -744v-698h-287v700zM524 1550l154 297h268l-215 -297h-207z" />
<glyph unicode="&#xde;" horiz-adv-x="1275" d="M158 0v1442h286v-273h347q199 0 324.5 -127.5t125.5 -320.5q0 -195 -125.5 -322t-324.5 -127h-347v-272h-286zM444 518h322q71 0 124.5 58.5t53.5 144.5t-53.5 144.5t-124.5 58.5h-322v-406z" />
<glyph unicode="&#xdf;" horiz-adv-x="1376" d="M152 0v958q0 246 141.5 375t392.5 129q121 0 216.5 -33t149.5 -85.5t81.5 -112t27.5 -119.5q0 -223 -246 -293q-44 -12 -65 -31t-21 -49q0 -61 115 -77q78 -10 143 -33t119.5 -62.5t85.5 -102t31 -142.5q0 -143 -111.5 -242.5t-283.5 -99.5q-355 0 -418 323 q14 3 124.5 25.5t129.5 25.5q5 -66 41 -107.5t108 -41.5q16 0 36.5 5t45.5 17t41.5 36.5t16.5 58.5q0 47 -33.5 76.5t-83.5 37.5q-155 29 -212 51q-133 52 -162 170q-9 37 -9 82q0 58 21.5 105t59.5 79.5t81.5 54t97.5 36.5q47 13 64.5 36t17.5 62q0 58 -59.5 91.5 t-149.5 33.5q-123 0 -190.5 -77t-67.5 -202v-958h-276z" />
<glyph unicode="&#xe0;" horiz-adv-x="1167" d="M78 317q0 130 117.5 225t316.5 95h231v37q0 25 -9 50.5t-28.5 50.5t-58 40.5t-90.5 15.5q-78 0 -139 -42.5t-64 -114.5l-245 41q24 167 144 254.5t304 87.5q220 0 341.5 -105.5t121.5 -306.5v-360q0 -72 45 -72q35 0 51 8v-211q-82 -20 -158 -20q-74 0 -121 33.5 t-67 91.5q-36 -55 -120 -95t-187 -40q-177 0 -281 92.5t-104 244.5zM254 1442h268l154 -297h-207zM354 317q0 -46 35 -79t111 -33q105 0 174 57t69 131v49h-200q-55 0 -94.5 -12.5t-59 -33t-27.5 -40t-8 -39.5z" />
<glyph unicode="&#xe1;" horiz-adv-x="1167" d="M78 317q0 130 117.5 225t316.5 95h231v37q0 25 -9 50.5t-28.5 50.5t-58 40.5t-90.5 15.5q-78 0 -139 -42.5t-64 -114.5l-245 41q24 167 144 254.5t304 87.5q220 0 341.5 -105.5t121.5 -306.5v-360q0 -72 45 -72q35 0 51 8v-211q-82 -20 -158 -20q-74 0 -121 33.5 t-67 91.5q-36 -55 -120 -95t-187 -40q-177 0 -281 92.5t-104 244.5zM354 317q0 -46 35 -79t111 -33q105 0 174 57t69 131v49h-200q-55 0 -94.5 -12.5t-59 -33t-27.5 -40t-8 -39.5zM446 1145l154 297h268l-215 -297h-207z" />
<glyph unicode="&#xe2;" horiz-adv-x="1167" d="M78 317q0 130 117.5 225t316.5 95h231v37q0 25 -9 50.5t-28.5 50.5t-58 40.5t-90.5 15.5q-78 0 -139 -42.5t-64 -114.5l-245 41q24 167 144 254.5t304 87.5q220 0 341.5 -105.5t121.5 -306.5v-360q0 -72 45 -72q35 0 51 8v-211q-82 -20 -158 -20q-74 0 -121 33.5 t-67 91.5q-36 -55 -120 -95t-187 -40q-177 0 -281 92.5t-104 244.5zM289 1145l155 297h269l157 -297h-211l-79 153l-80 -153h-211zM354 317q0 -46 35 -79t111 -33q105 0 174 57t69 131v49h-200q-55 0 -94.5 -12.5t-59 -33t-27.5 -40t-8 -39.5z" />
<glyph unicode="&#xe3;" horiz-adv-x="1167" d="M78 317q0 130 117.5 225t316.5 95h231v37q0 25 -9 50.5t-28.5 50.5t-58 40.5t-90.5 15.5q-78 0 -139 -42.5t-64 -114.5l-245 41q24 167 144 254.5t304 87.5q220 0 341.5 -105.5t121.5 -306.5v-360q0 -72 45 -72q35 0 51 8v-211q-82 -20 -158 -20q-74 0 -121 33.5 t-67 91.5q-36 -55 -120 -95t-187 -40q-177 0 -281 92.5t-104 244.5zM201 1145v65q0 33 12 66t37 64.5t71.5 51t108.5 19.5q45 0 98.5 -23t98.5 -46t69 -23q35 0 61.5 21t26.5 71h154v-68q0 -32 -12.5 -65t-38.5 -63.5t-73 -50t-107 -19.5q-49 0 -103.5 22.5t-98.5 45 t-67 22.5q-35 0 -60.5 -21t-25.5 -69h-151zM354 317q0 -46 35 -79t111 -33q105 0 174 57t69 131v49h-200q-55 0 -94.5 -12.5t-59 -33t-27.5 -40t-8 -39.5z" />
<glyph unicode="&#xe4;" horiz-adv-x="1167" d="M78 317q0 130 117.5 225t316.5 95h231v37q0 25 -9 50.5t-28.5 50.5t-58 40.5t-90.5 15.5q-78 0 -139 -42.5t-64 -114.5l-245 41q24 167 144 254.5t304 87.5q220 0 341.5 -105.5t121.5 -306.5v-360q0 -72 45 -72q35 0 51 8v-211q-82 -20 -158 -20q-74 0 -121 33.5 t-67 91.5q-36 -55 -120 -95t-187 -40q-177 0 -281 92.5t-104 244.5zM184 1303q0 67 46 113t112 46t113 -46t47 -113q0 -66 -47 -112t-113 -46t-112 46t-46 112zM354 317q0 -46 35 -79t111 -33q105 0 174 57t69 131v49h-200q-55 0 -94.5 -12.5t-59 -33t-27.5 -40t-8 -39.5z M625 1303q0 67 45.5 113t111.5 46t113 -46t47 -113q0 -66 -47 -112t-113 -46t-111.5 46t-45.5 112z" />
<glyph unicode="&#xe5;" horiz-adv-x="1167" d="M78 317q0 130 117.5 225t316.5 95h231v37q0 25 -9 50.5t-28.5 50.5t-58 40.5t-90.5 15.5q-78 0 -139 -42.5t-64 -114.5l-245 41q24 167 144 254.5t304 87.5q220 0 341.5 -105.5t121.5 -306.5v-360q0 -72 45 -72q35 0 51 8v-211q-82 -20 -158 -20q-74 0 -121 33.5 t-67 91.5q-36 -55 -120 -95t-187 -40q-177 0 -281 92.5t-104 244.5zM354 317q0 -46 35 -79t111 -33q105 0 174 57t69 131v49h-200q-55 0 -94.5 -12.5t-59 -33t-27.5 -40t-8 -39.5zM373 1341q0 80 59 138.5t141 58.5q84 0 142.5 -58.5t58.5 -138.5q0 -83 -58 -139.5 t-143 -56.5q-82 0 -141 56.5t-59 139.5zM477 1341q0 -38 29 -66t67 -28q41 0 69 27.5t28 66.5t-28 68t-69 29q-38 0 -67 -29.5t-29 -67.5z" />
<glyph unicode="&#xe6;" horiz-adv-x="1814" d="M78 317q0 130 117.5 225t316.5 95h231v37q0 25 -9 50.5t-28.5 50.5t-58 40.5t-90.5 15.5q-78 0 -139 -42.5t-64 -114.5l-245 41q24 167 144 254.5t304 87.5q232 0 352 -117q130 117 322 117q219 0 350 -137.5t131 -366.5q0 -54 -8 -111h-684q5 -100 70 -168.5t157 -68.5 q162 0 236 166l250 -80q-19 -49 -46.5 -92t-69.5 -84t-94 -70t-123 -47t-153 -18q-119 0 -218 44.5t-167 127.5q-154 -172 -399 -172q-177 0 -281 92.5t-104 244.5zM354 317q0 -46 35 -79t111 -33q105 0 174 57t69 131v49h-200q-55 0 -94.5 -12.5t-59 -33t-27.5 -40 t-8 -39.5zM1036 637h385q-8 89 -57 141.5t-133 52.5q-81 0 -135 -57.5t-60 -136.5z" />
<glyph unicode="&#xe7;" horiz-adv-x="1140" d="M90 518q0 242 133 390.5t359 148.5q190 0 308 -95.5t159 -250.5l-275 -52q-22 85 -74 128.5t-116 43.5q-111 0 -164 -84t-53 -229q0 -146 53 -229.5t164 -83.5q71 0 123 43.5t75 126.5l273 -51q-29 -131 -131 -225t-260 -113l-60 -56q66 0 121 -43.5t55 -122.5 q0 -83 -56 -137.5t-163 -54.5q-95 0 -152 52t-57 132l117 19q0 -39 26.5 -63.5t65.5 -24.5q34 0 54 24.5t20 52.5q0 40 -20.5 64.5t-51.5 24.5q-30 0 -53 -21l-64 64l95 86q-209 13 -330 158.5t-121 377.5z" />
<glyph unicode="&#xe8;" horiz-adv-x="1163" d="M90 518q0 240 135 389.5t355 149.5q219 0 350 -137.5t131 -366.5q0 -54 -8 -111h-684q5 -100 70 -168.5t157 -68.5q161 0 235 166l250 -80q-25 -62 -63 -114.5t-95.5 -98.5t-141 -72t-185.5 -26q-222 0 -364 150t-142 388zM254 1442h268l154 -297h-207zM385 637h385 q-8 89 -57 141.5t-133 52.5q-81 0 -135 -57.5t-60 -136.5z" />
<glyph unicode="&#xe9;" horiz-adv-x="1163" d="M90 518q0 240 135 389.5t355 149.5q219 0 350 -137.5t131 -366.5q0 -54 -8 -111h-684q5 -100 70 -168.5t157 -68.5q161 0 235 166l250 -80q-25 -62 -63 -114.5t-95.5 -98.5t-141 -72t-185.5 -26q-222 0 -364 150t-142 388zM385 637h385q-8 89 -57 141.5t-133 52.5 q-81 0 -135 -57.5t-60 -136.5zM489 1145l154 297h268l-215 -297h-207z" />
<glyph unicode="&#xea;" horiz-adv-x="1163" d="M90 518q0 240 135 389.5t355 149.5q219 0 350 -137.5t131 -366.5q0 -54 -8 -111h-684q5 -100 70 -168.5t157 -68.5q161 0 235 166l250 -80q-25 -62 -63 -114.5t-95.5 -98.5t-141 -72t-185.5 -26q-222 0 -364 150t-142 388zM305 1145l156 297h268l158 -297h-211l-80 153 l-80 -153h-211zM385 637h385q-8 89 -57 141.5t-133 52.5q-81 0 -135 -57.5t-60 -136.5z" />
<glyph unicode="&#xeb;" horiz-adv-x="1163" d="M90 518q0 240 135 389.5t355 149.5q219 0 350 -137.5t131 -366.5q0 -54 -8 -111h-684q5 -100 70 -168.5t157 -68.5q161 0 235 166l250 -80q-25 -62 -63 -114.5t-95.5 -98.5t-141 -72t-185.5 -26q-222 0 -364 150t-142 388zM207 1303q0 67 46 113t112 46t112.5 -46 t46.5 -113q0 -66 -46.5 -112t-112.5 -46t-112 46t-46 112zM385 637h385q-8 89 -57 141.5t-133 52.5q-81 0 -135 -57.5t-60 -136.5zM647 1303q0 67 46 113t112 46t113 -46t47 -113q0 -66 -47 -112t-113 -46t-112 46t-46 112z" />
<glyph unicode="&#xec;" horiz-adv-x="579" d="M-20 1442h268l153 -297h-206zM152 0v1036h276v-1036h-276z" />
<glyph unicode="&#xed;" horiz-adv-x="579" d="M152 0v1036h276v-1036h-276zM180 1145l154 297h268l-215 -297h-207z" />
<glyph unicode="&#xee;" horiz-adv-x="579" d="M0 1145l156 297h268l158 -297h-211l-80 153l-80 -153h-211zM152 0v1036h276v-1036h-276z" />
<glyph unicode="&#xef;" horiz-adv-x="579" d="M-88 1303q0 67 46 113t112 46t112.5 -46t46.5 -113q0 -66 -46.5 -112t-112.5 -46t-112 46t-46 112zM152 0v1036h276v-1036h-276zM352 1303q0 67 46 113t112 46t113 -46t47 -113q0 -66 -47 -112t-113 -46t-112 46t-46 112z" />
<glyph unicode="&#xf0;" horiz-adv-x="1185" d="M90 518q0 237 129.5 388t327.5 151q89 0 139 -35q-65 76 -168 145l-235 -110l-70 139l137 66q-59 28 -145 57l47 143q171 -40 297 -106l221 106l76 -139l-137 -66q183 -137 285 -330.5t102 -408.5q0 -240 -138 -389t-364 -149q-230 0 -367 148.5t-137 389.5zM367 518 q0 -155 61 -234t166 -79q102 0 163.5 79.5t61.5 233.5q0 152 -61.5 231.5t-163.5 79.5q-105 0 -166 -79.5t-61 -231.5z" />
<glyph unicode="&#xf1;" horiz-adv-x="1232" d="M152 0v1036h256l20 -131q26 58 95.5 105t156.5 47q226 -1 323 -118.5t97 -371.5v-567h-275v567q0 137 -50 200.5t-150 63.5q-95 0 -146 -66t-51 -198v-567h-276zM256 1145v65q0 33 12 66t37 64.5t71.5 51t108.5 19.5q45 0 99 -23t99 -46t69 -23q35 0 61.5 21t26.5 71h153 v-68q0 -32 -12.5 -65t-38.5 -63.5t-73 -50t-107 -19.5q-49 0 -103 22.5t-98 45t-67 22.5q-35 0 -60.5 -21t-25.5 -69h-152z" />
<glyph unicode="&#xf2;" horiz-adv-x="1185" d="M90 518q0 241 137 390t367 149q226 0 364 -150t138 -389q0 -240 -138 -389t-364 -149q-230 0 -367 148.5t-137 389.5zM266 1442h269l153 -297h-207zM367 518q0 -155 61 -234t166 -79q102 0 163.5 79.5t61.5 233.5q0 152 -61.5 232.5t-163.5 80.5q-104 0 -165.5 -80 t-61.5 -233z" />
<glyph unicode="&#xf3;" horiz-adv-x="1185" d="M90 518q0 241 137 390t367 149q226 0 364 -150t138 -389q0 -240 -138 -389t-364 -149q-230 0 -367 148.5t-137 389.5zM367 518q0 -155 61 -234t166 -79q102 0 163.5 79.5t61.5 233.5q0 152 -61.5 232.5t-163.5 80.5q-104 0 -165.5 -80t-61.5 -233zM485 1145l154 297h268 l-215 -297h-207z" />
<glyph unicode="&#xf4;" horiz-adv-x="1185" d="M90 518q0 241 137 390t367 149q226 0 364 -150t138 -389q0 -240 -138 -389t-364 -149q-230 0 -367 148.5t-137 389.5zM301 1145l156 297h268l158 -297h-211l-80 153l-80 -153h-211zM367 518q0 -155 61 -234t166 -79q102 0 163.5 79.5t61.5 233.5q0 152 -61.5 232.5 t-163.5 80.5q-104 0 -165.5 -80t-61.5 -233z" />
<glyph unicode="&#xf5;" horiz-adv-x="1185" d="M90 518q0 241 137 390t367 149q226 0 364 -150t138 -389q0 -240 -138 -389t-364 -149q-230 0 -367 148.5t-137 389.5zM223 1145v65q0 26 7 52t24 53t42.5 48t66 34.5t90.5 13.5q45 0 98.5 -23t98.5 -46t69 -23q35 0 61.5 21t26.5 71h154v-68q0 -32 -13 -65t-39 -63.5 t-73 -50t-107 -19.5q-49 0 -103 22.5t-98 45t-67 22.5q-35 0 -60.5 -21t-25.5 -69h-152zM367 518q0 -155 61 -234t166 -79q102 0 163.5 79.5t61.5 233.5q0 152 -61.5 232.5t-163.5 80.5q-104 0 -165.5 -80t-61.5 -233z" />
<glyph unicode="&#xf6;" horiz-adv-x="1185" d="M90 518q0 241 137 390t367 149q226 0 364 -150t138 -389q0 -240 -138 -389t-364 -149q-230 0 -367 148.5t-137 389.5zM213 1303q0 67 46 113t112 46t112.5 -46t46.5 -113q0 -66 -46.5 -112t-112.5 -46t-112 46t-46 112zM367 518q0 -155 61 -234t166 -79q102 0 163.5 79.5 t61.5 233.5q0 152 -61.5 232.5t-163.5 80.5q-104 0 -165.5 -80t-61.5 -233zM653 1303q0 67 46 113t112 46t113 -46t47 -113q0 -66 -47 -112t-113 -46t-112 46t-46 112z" />
<glyph unicode="&#xf7;" horiz-adv-x="1241" d="M102 600v246h1037v-246h-1037zM426 377q0 83 55 139.5t137 56.5q80 0 137.5 -57t57.5 -139q0 -81 -57.5 -137t-137.5 -56q-82 0 -137 55.5t-55 137.5zM426 1065q0 83 55 140t137 57q80 0 137.5 -57t57.5 -140q0 -81 -57.5 -137t-137.5 -56q-82 0 -137 55.5t-55 137.5z " />
<glyph unicode="&#xf8;" horiz-adv-x="1185" d="M90 518q0 241 137 390t367 149q82 0 168 -27l57 119l137 -68l-59 -120q95 -71 147 -185.5t52 -257.5q0 -240 -138 -389t-364 -149q-92 0 -168 24l-57 -117l-140 68l58 119q-94 69 -145.5 184t-51.5 260zM367 518q0 -129 41 -203l249 506q-33 10 -63 10q-104 0 -165.5 -80 t-61.5 -233zM528 213q27 -8 66 -8q102 0 163.5 79.5t61.5 233.5q0 121 -43 199z" />
<glyph unicode="&#xf9;" horiz-adv-x="1232" d="M133 469v567h275v-567q0 -137 50 -200.5t150 -63.5q95 0 146 66t51 198v567h276v-1036h-256l-20 131q-26 -58 -95.5 -104.5t-156.5 -46.5q-226 1 -323 118t-97 371zM270 1442h269l153 -297h-207z" />
<glyph unicode="&#xfa;" horiz-adv-x="1232" d="M133 469v567h275v-567q0 -137 50 -200.5t150 -63.5q95 0 146 66t51 198v567h276v-1036h-256l-20 131q-26 -58 -95.5 -104.5t-156.5 -46.5q-226 1 -323 118t-97 371zM500 1145l153 297h269l-215 -297h-207z" />
<glyph unicode="&#xfb;" horiz-adv-x="1232" d="M133 469v567h275v-567q0 -137 50 -200.5t150 -63.5q95 0 146 66t51 198v567h276v-1036h-256l-20 131q-26 -58 -95.5 -104.5t-156.5 -46.5q-226 1 -323 118t-97 371zM307 1145l156 297h268l158 -297h-211l-80 153l-80 -153h-211z" />
<glyph unicode="&#xfc;" horiz-adv-x="1232" d="M133 469v567h275v-567q0 -137 50 -200.5t150 -63.5q95 0 146 66t51 198v567h276v-1036h-256l-20 131q-26 -58 -95.5 -104.5t-156.5 -46.5q-226 1 -323 118t-97 371zM236 1303q0 67 45.5 113t111.5 46t113 -46t47 -113q0 -66 -47 -112t-113 -46t-111.5 46t-45.5 112z M676 1303q0 67 46 113t112 46t112.5 -46t46.5 -113q0 -66 -46.5 -112t-112.5 -46t-112 46t-46 112z" />
<glyph unicode="&#xfd;" horiz-adv-x="1116" d="M35 1036h289l239 -712l236 712h288l-436 -1155q-22 -58 -43 -98.5t-50.5 -78.5t-65.5 -60.5t-86.5 -36t-114.5 -13.5h-215v226h215q33 0 61 22t41 62l33 96zM455 1145l153 297h269l-215 -297h-207z" />
<glyph unicode="&#xfe;" horiz-adv-x="1247" d="M152 -406v1848h276v-539q31 67 105 110.5t176 43.5q196 0 322 -150.5t126 -388.5q0 -243 -120 -390.5t-328 -147.5q-81 0 -164.5 44t-116.5 109v-539h-276zM428 518q0 -153 60.5 -231t164.5 -78q103 0 165.5 79t62.5 230q0 154 -62.5 233.5t-165.5 79.5q-105 0 -165 -79 t-60 -234z" />
<glyph unicode="&#xff;" horiz-adv-x="1116" d="M35 1036h289l239 -712l236 712h288l-436 -1155q-22 -58 -43 -98.5t-50.5 -78.5t-65.5 -60.5t-86.5 -36t-114.5 -13.5h-215v226h215q33 0 61 22t41 62l33 96zM182 1303q0 67 46 113t112 46t113 -46t47 -113q0 -66 -47 -112t-113 -46t-112 46t-46 112zM623 1303 q0 67 45.5 113t111.5 46t113 -46t47 -113q0 -66 -47 -112t-113 -46t-111.5 46t-45.5 112z" />
<glyph unicode="&#x152;" horiz-adv-x="2162" d="M72 721q0 163 41 298.5t118.5 234t196.5 153.5t268 55q201 0 332 -98v78h1038v-246h-751v-332h647v-246h-647v-372h751v-246h-1038v76q-132 -96 -332 -96q-199 0 -341 95.5t-212.5 261t-70.5 384.5zM369 721q0 -485 327 -485q332 0 332 485t-332 485q-327 0 -327 -485z " />
<glyph unicode="&#x153;" horiz-adv-x="1892" d="M90 518q0 241 137 390t367 149q221 0 356 -154q138 154 359 154q219 0 350 -137.5t131 -366.5q0 -54 -8 -111h-684q5 -100 70 -168.5t157 -68.5q162 0 236 166l249 -80q-25 -62 -63 -114.5t-95.5 -98.5t-141 -72t-185.5 -26q-229 0 -371 155q-133 -155 -360 -155 q-230 0 -367 148.5t-137 389.5zM367 518q0 -155 61 -234t166 -79q99 0 160.5 75.5t64.5 221.5v16q0 152 -61.5 232.5t-163.5 80.5q-104 0 -165.5 -80t-61.5 -233zM1114 637h385q-8 89 -57 141.5t-133 52.5q-81 0 -135 -57.5t-60 -136.5z" />
<glyph unicode="&#x178;" horiz-adv-x="1216" d="M6 1442h320l282 -484l283 484h317l-456 -744v-698h-287v700zM229 1708q0 67 46 113.5t112 46.5t113 -46.5t47 -113.5q0 -66 -47 -112t-113 -46t-112 46t-46 112zM670 1708q0 67 45.5 113.5t111.5 46.5t113 -46.5t47 -113.5q0 -66 -47 -112t-113 -46t-111.5 46t-45.5 112z " />
<glyph unicode="&#x2c6;" horiz-adv-x="704" d="M61 1145l156 297h268l158 -297h-211l-80 153l-80 -153h-211z" />
<glyph unicode="&#x2dc;" horiz-adv-x="860" d="M61 1145v65q0 26 7 52t24 53t42.5 48t66 34.5t90.5 13.5q45 0 98.5 -23t98.5 -46t69 -23q35 0 61.5 21t26.5 71h154v-68q0 -32 -13 -65t-39 -63.5t-73 -50t-107 -19.5q-49 0 -103 22.5t-98 45t-67 22.5q-35 0 -60.5 -21t-25.5 -69h-152z" />
<glyph unicode="&#x2000;" horiz-adv-x="972" />
<glyph unicode="&#x2001;" horiz-adv-x="1944" />
<glyph unicode="&#x2002;" horiz-adv-x="972" />
<glyph unicode="&#x2003;" horiz-adv-x="1944" />
<glyph unicode="&#x2004;" horiz-adv-x="648" />
<glyph unicode="&#x2005;" horiz-adv-x="486" />
<glyph unicode="&#x2006;" horiz-adv-x="324" />
<glyph unicode="&#x2007;" horiz-adv-x="324" />
<glyph unicode="&#x2008;" horiz-adv-x="243" />
<glyph unicode="&#x2009;" horiz-adv-x="388" />
<glyph unicode="&#x200a;" horiz-adv-x="108" />
<glyph unicode="&#x2010;" horiz-adv-x="933" d="M102 406v245h729v-245h-729z" />
<glyph unicode="&#x2011;" horiz-adv-x="933" d="M102 406v245h729v-245h-729z" />
<glyph unicode="&#x2012;" horiz-adv-x="933" d="M102 406v245h729v-245h-729z" />
<glyph unicode="&#x2013;" horiz-adv-x="1271" d="M164 600v246h944v-246h-944z" />
<glyph unicode="&#x2014;" horiz-adv-x="1839" d="M164 600v246h1511v-246h-1511z" />
<glyph unicode="&#x2018;" horiz-adv-x="620" d="M139 1137q0 136 91.5 230.5t203.5 94.5l47 -98q-63 0 -110 -46.5t-47 -109.5q66 0 111.5 -46t45.5 -113q0 -66 -45.5 -113t-111.5 -47q-79 0 -132 62t-53 186z" />
<glyph unicode="&#x2019;" horiz-adv-x="620" d="M139 987q63 0 110.5 46.5t47.5 109.5q-66 0 -112 46.5t-46 113.5q0 66 46 112.5t112 46.5q79 0 131.5 -62t52.5 -186q0 -136 -91.5 -230.5t-203.5 -94.5z" />
<glyph unicode="&#x201a;" horiz-adv-x="620" d="M139 139q0 66 46 113t112 47q79 0 131.5 -62t52.5 -186q0 -136 -91.5 -230.5t-203.5 -94.5l-47 98q63 0 110.5 46.5t47.5 109.5q-66 0 -112 46t-46 113z" />
<glyph unicode="&#x201c;" horiz-adv-x="1050" d="M139 1137q0 136 91.5 230.5t203.5 94.5l47 -98q-63 0 -110 -46.5t-47 -109.5q66 0 111.5 -46t45.5 -113q0 -66 -45.5 -113t-111.5 -47q-79 0 -132 62t-53 186zM569 1137q0 136 91.5 230.5t203.5 94.5l47 -98q-63 0 -110 -46.5t-47 -109.5q66 0 111.5 -46t45.5 -113 q0 -66 -45.5 -113t-111.5 -47q-79 0 -132 62t-53 186z" />
<glyph unicode="&#x201d;" horiz-adv-x="1050" d="M139 987q63 0 110.5 46.5t47.5 109.5q-66 0 -112 46.5t-46 113.5q0 66 46 112.5t112 46.5q79 0 131.5 -62t52.5 -186q0 -136 -91.5 -230.5t-203.5 -94.5zM569 987q63 0 110.5 46.5t47.5 109.5q-66 0 -112 46.5t-46 113.5q0 66 46 112.5t112 46.5q79 0 131.5 -62 t52.5 -186q0 -136 -91.5 -230.5t-203.5 -94.5z" />
<glyph unicode="&#x201e;" horiz-adv-x="1050" d="M139 139q0 66 46 113t112 47q79 0 131.5 -62t52.5 -186q0 -136 -91.5 -230.5t-203.5 -94.5l-47 98q63 0 110.5 46.5t47.5 109.5q-66 0 -112 46t-46 113zM569 139q0 66 46 113t112 47q79 0 131.5 -62t52.5 -186q0 -136 -91.5 -230.5t-203.5 -94.5l-47 98q63 0 110.5 46.5 t47.5 109.5q-66 0 -112 46t-46 113z" />
<glyph unicode="&#x2022;" horiz-adv-x="858" d="M139 719q0 125 83 210t206 85q121 0 206 -85.5t85 -209.5q0 -121 -85 -205t-206 -84q-123 0 -206 83.5t-83 205.5z" />
<glyph unicode="&#x2026;" horiz-adv-x="2183" d="M139 172q0 83 55.5 140t137.5 57q80 0 137 -57t57 -140q0 -81 -57 -136.5t-137 -55.5q-82 0 -137.5 55t-55.5 137zM897 172q0 83 56.5 140t136.5 57q82 0 138 -57t56 -140q0 -82 -56 -137t-138 -55q-80 0 -136.5 55.5t-56.5 136.5zM1657 172q0 83 55 140t137 57 q80 0 137.5 -57t57.5 -140q0 -81 -57.5 -136.5t-137.5 -55.5q-82 0 -137 55t-55 137z" />
<glyph unicode="&#x202f;" horiz-adv-x="388" />
<glyph unicode="&#x2039;" horiz-adv-x="600" d="M78 430v209l368 340v-277l-176 -167l176 -168v-279z" />
<glyph unicode="&#x203a;" horiz-adv-x="600" d="M154 88v279l176 168l-176 167v277l368 -340v-209z" />
<glyph unicode="&#x205f;" horiz-adv-x="486" />
<glyph unicode="&#x20ac;" d="M106 475l54 195h84v104h-138l54 195h108q23 111 69.5 200t116 155t167 102t217.5 36q177 0 340 -94l-76 -291q-48 59 -116.5 94t-147.5 35q-109 0 -175.5 -58.5t-95.5 -178.5h506l-45 -195h-485q-2 -18 -2 -55q0 -33 2 -49h454l-51 -195h-381q28 -119 101 -179t172 -60 q91 0 180 46t153 113v-313q-55 -44 -141 -73t-192 -29q-236 0 -379.5 132t-192.5 363h-160z" />
<glyph unicode="&#x2122;" horiz-adv-x="1406" d="M61 1325v117h508v-117h-182v-604h-143v604h-183zM633 721v721h184l170 -545l168 545h186v-721h-145v455l-141 -455h-135l-142 455v-455h-145z" />
<glyph unicode="&#x25fc;" horiz-adv-x="1034" d="M0 0v1034h1034v-1034h-1034z" />
<glyph unicode="&#xfb01;" horiz-adv-x="1294" d="M127 842v194h172v115q0 291 303 291h178v-225h-139q-66 0 -66 -84v-97h562v-1036h-275v842h-287v-842h-276v842h-172zM840 1303q0 67 45.5 113t111.5 46t113 -46t47 -113q0 -66 -47 -112t-113 -46t-111.5 46t-45.5 112z" />
<glyph unicode="&#xfb02;" horiz-adv-x="1267" d="M123 842v194h172v115q0 291 303 291h520v-1442h-276v1217h-205q-66 0 -66 -84v-97h172v-194h-172v-842h-276v842h-172z" />
<glyph horiz-adv-x="1390" d="M123 713q0 131 20 240.5t64 201t110.5 154.5t162.5 98t216 35q149 0 260 -53t178.5 -151.5t100.5 -229.5t33 -295t-33 -295.5t-100.5 -231t-178.5 -153t-260 -53.5q-120 0 -216 35.5t-162 99t-110.5 155.5t-64.5 202t-20 241zM420 713q0 -257 63.5 -367t212.5 -110 q147 0 211 110.5t64 366.5q0 257 -64 365t-211 108q-150 0 -213 -107t-63 -366z" />
<glyph horiz-adv-x="911" d="M76 811v315l336 295h276v-1421h-287v1094z" />
<glyph horiz-adv-x="1210" d="M76 967q0 93 29 171.5t78 133.5t114 94t136 57.5t145 18.5q144 0 264.5 -59t190 -161.5t69.5 -224.5q0 -86 -20.5 -155t-68.5 -127t-77.5 -85.5t-93.5 -77.5q-14 -11 -21 -17l-360 -289h661v-246h-1042v246l520 459q8 7 34.5 30.5t37 32.5t33.5 31.5t33 36t26 35.5t23 40 t12.5 40.5t5.5 45.5q0 79 -61 134t-166 55q-86 0 -151.5 -70t-61.5 -201z" />
<glyph horiz-adv-x="1224" d="M61 446l273 50q0 -124 73 -192t177 -68q101 0 175.5 60t74.5 150q0 116 -76 184t-170 68q-78 0 -135 -55l-168 166l395 369h-504v243h821v-243l-295 -271q75 0 150 -31t137.5 -87t101.5 -145.5t39 -197.5q0 -136 -77.5 -244t-201 -165t-265.5 -57q-147 0 -266.5 58.5 t-189 165.5t-69.5 242z" />
<glyph horiz-adv-x="1273" d="M35 293v246l461 882h317l-461 -882h320v305h289v-305h286v-246h-286v-293h-289v293h-637z" />
<glyph horiz-adv-x="1232" d="M68 393l288 51q2 -34 14.5 -67t39 -66.5t77 -54t117.5 -20.5q121 0 185.5 77t64.5 193q0 109 -66 190.5t-184 81.5q-50 0 -88.5 -10.5t-64 -31t-40 -38t-30.5 -45.5l-277 58l89 710h806v-235h-571l-35 -275q37 57 120 91t157 34q98 0 186 -38.5t153 -107t103.5 -168.5 t38.5 -216q0 -124 -44.5 -225t-120 -166t-174 -100t-208.5 -35q-111 0 -203 29t-150 73t-100 101t-60.5 109t-22.5 101z" />
<glyph horiz-adv-x="1329" d="M123 496q0 78 28 169t80 175l357 581h305l-256 -434q49 21 119 21q132 0 241.5 -71.5t169.5 -189t60 -251.5q0 -101 -40 -194.5t-110.5 -165t-175.5 -114t-227 -42.5q-121 0 -225.5 42.5t-175 113.5t-110.5 164.5t-40 195.5zM420 496q0 -107 66.5 -183.5t187.5 -76.5 q122 0 188 76t66 184q0 107 -66 181.5t-188 74.5q-121 0 -187.5 -74.5t-66.5 -181.5z" />
<glyph horiz-adv-x="976" d="M-41 1176v245h987v-233l-534 -1188h-303l534 1176h-684z" />
<glyph horiz-adv-x="1234" d="M94 416q0 112 61 197t152 135q-176 99 -176 282q0 117 65 211.5t176 147.5t244 53t244 -53t176.5 -147.5t65.5 -211.5q0 -174 -170 -280q91 -49 150 -134t59 -200q0 -187 -152.5 -311.5t-372.5 -124.5q-145 0 -264.5 56t-188.5 156t-69 224zM391 432q0 -86 65.5 -141 t159.5 -55q95 0 161.5 55t66.5 141q0 101 -66.5 159t-161.5 58q-94 0 -159.5 -58t-65.5 -159zM418 1022q0 -78 57 -123t141 -45t141.5 45t57.5 123q0 70 -58 117t-141 47q-84 0 -141 -47t-57 -117z" />
<glyph horiz-adv-x="1329" d="M102 926q0 101 40 194.5t110.5 165t175.5 114t227 42.5q121 0 225.5 -42.5t175 -113.5t110.5 -164.5t40 -195.5q0 -78 -28 -169t-80 -175l-357 -582h-305l256 434q-47 -20 -119 -20q-132 0 -241.5 71.5t-169.5 189t-60 251.5zM401 926q0 -107 66 -181.5t188 -74.5 q121 0 187.5 74.5t66.5 181.5t-66.5 183.5t-187.5 76.5q-122 0 -188 -76t-66 -184z" />
<glyph d="M41 385v205h246l43 241h-199v205h236l69 385h226l-70 -385h211l69 385h228l-70 -385h213v-205h-248l-43 -241h201v-205h-238l-67 -385h-227l67 385h-211l-67 -385h-228l68 385h-209zM514 590h211l43 241h-211z" />
<glyph d="M57 463l289 41q0 -86 49.5 -157t147.5 -99v375q-94 15 -171 43t-144 75t-104.5 121t-37.5 170q0 95 39 173t105 128t145 81t168 42v180h174v-180q126 -15 231.5 -70t173 -150t70.5 -212l-270 -41q-8 99 -65 151t-140 66v-330q86 -12 154 -30t137 -52t114.5 -81t74 -119.5 t28.5 -165.5q0 -182 -138.5 -302.5t-369.5 -137.5v-183h-174v187q-123 15 -218 63t-150.5 116.5t-84.5 143.5t-33 154zM383 1053q0 -59 37.5 -95.5t122.5 -58.5v299q-72 -11 -116 -47t-44 -98zM717 240q99 11 156 52t57 109q0 163 -213 201v-362z" />
<glyph d="M154 518q0 216 109.5 358.5t299.5 170.5v188h170v-184q155 -19 253.5 -111t135.5 -229q-140 -30 -274 -52q-30 114 -115 146v-582q95 38 123 152q20 -3 138.5 -25.5t133.5 -25.5q-29 -132 -133 -227t-262 -111v-185h-170v187q-190 28 -299.5 170.5t-109.5 359.5zM428 518 q0 -108 35 -183t100 -104v570q-65 -29 -100 -103.5t-35 -179.5z" />
<glyph d="M121 0v246h67q111 0 111 123v268h-178v205h178v186q0 122 47.5 219t145 156t231.5 59q199 0 318.5 -104t119.5 -318l-287 -49q0 69 -10 113t-31.5 65.5t-46.5 29t-63 7.5q-73 0 -105 -43t-32 -135v-186h219v-205h-219v-268q0 -82 -35 -123h323v256h287v-502h-1040z" />
<glyph d="M39 1442h315l287 -484l287 484h315l-364 -596h211v-195h-306v-104h306v-195h-306v-352h-288v352h-301v195h301v104h-301v195h206z" />
<glyph d="M106 475l54 195h84v104h-138l54 195h108q23 111 69.5 200t116 155t167 102t217.5 36q177 0 340 -94l-76 -291q-48 59 -116.5 94t-147.5 35q-109 0 -175.5 -58.5t-95.5 -178.5h506l-45 -195h-485q-2 -18 -2 -55q0 -33 2 -49h454l-51 -195h-381q28 -119 101 -179t172 -60 q91 0 180 46t153 113v-313q-55 -44 -141 -73t-192 -29q-236 0 -379.5 132t-192.5 363h-160z" />
<glyph d="M68 70l145 143q-74 127 -74 305q0 176 74 303l-145 146l116 116l135 -135q131 109 324 109q190 0 318 -109l137 135l116 -116l-145 -144q76 -130 76 -305q0 -177 -76 -307l145 -141l-116 -117l-137 133q-128 -106 -318 -106q-193 0 -324 106l-135 -133q-8 9 -58 58.5 t-58 58.5zM416 518q0 -155 61 -234t166 -79q102 0 163.5 79.5t61.5 233.5q0 152 -61.5 232.5t-163.5 80.5q-104 0 -165.5 -80t-61.5 -233z" />
</font>
</defs>
</svg>
