<svg xmlns="http://www.w3.org/2000/svg" width="68" height="49" viewBox="0 0 68 49"><path fill="#000" d="M45.426 10.355c.506-.024 1.65-.058 2.93.015l5.457-4.91-2.397-.241-6.018 5.133.002.005a.177.177 0 0 1 .026-.002zM5.74 35.568l-1.771-3.166-.422 3.607L0 36.723l3.288 1.514-.42 3.608 2.452-2.672 3.287 1.517-1.771-3.167 2.45-2.668-3.546.713zm11.855 5.475l-1.771-3.165-.419 3.607-3.548.712 3.289 1.517-.421 3.608 2.45-2.672 3.29 1.517L18.691 43l2.451-2.668-3.548.712zm1.588-15.278L17.411 22.6l-.42 3.606-3.548.714 3.288 1.517-.419 3.606 2.45-2.672 3.29 1.518-1.773-3.166 2.452-2.672-3.548.714zm43.975 4.559a7.17 7.17 0 0 1-2.793 1.221 7.237 7.237 0 0 1-7.296-2.88c-1.81-2.533-1.75-5.846-.108-8.29l5.822 4.34c.118.087.26.122.394.106a.546.546 0 0 0 .378-.214.554.554 0 0 0-.108-.775l-5.658-4.476a7.128 7.128 0 0 1 3.727-2.04 7.239 7.239 0 0 1 7.296 2.882c2.324 3.249 1.583 7.79-1.654 10.126zM43.882 19.863c-1.73-1.253-5.305-.648-7.633-.258.791-1.672 2.19-3.401 2.654-5.416.25 1.27 4.433 2.714 4.433 2.714s1.9-.422 3.542-1.068c.019.016.037.034.054.046l.628.468-3.678 3.514zm2.519 6.418L44.766 22.5c.052-.6.021-1.14-.115-1.59l2.853-2.725L46.4 26.28zm-.68 4.995c-.301.008-.6.092-.878.237-.156-.182-.396-.365-.83-.646-.33-.213-1.824-1.111-1.766-1.3.216-.653.703-1.624 1.407-3 .74.819 1.485 2.213 2.215 3.619l-.148 1.09zm-2.28 3.165a9.08 9.08 0 0 0-6.04-3.548l.241-2.605 2.054 1.456c-.226.828-.13 1.266.54 1.537l3.594 1.396.019.015c-.15.465-.136.977.067 1.441l-.476.308zm-3.027 11.351a7.153 7.153 0 0 1-2.791 1.226 7.238 7.238 0 0 1-7.294-2.88c-2.325-3.25-1.582-7.793 1.654-10.125a7.146 7.146 0 0 1 3.963-1.358l-.686 7.378a.648.648 0 0 0 .306.611.63.63 0 0 0 .46.08.603.603 0 0 0 .222-.09l6.34-4.105c1.652 3.15.786 7.13-2.174 9.263zM37.23 32.727a7.237 7.237 0 0 1 4.663 2.717l-5.23 3.39.567-6.107zm4.578-9.101c-.658 2.287-1.315 3.894-1.742 5.027l-2.021-1.433 3.763-3.594zm-7.89.666c.269-.005.55-.026.86-.084a81.559 81.559 0 0 0 5.266-.677l-3.068 2.93-3.059-2.17zm8.775-11.03c1.34.119 2.72.007 3.935-.181l.441.982c-.956.06-1.937.163-2.826.31-.707.118-2.542-1.708-1.55-1.111zm23.609 5.862a9.068 9.068 0 0 0-9.146-3.612 8.967 8.967 0 0 0-3.502 1.532c-.486.35-.924.742-1.318 1.163l-2.637-2.085c.768-.288 3.162-1.255 2.17-1.779-.265-.14-.806-.237-1.508-.289l1.872-1.634.409-.357 3.503-3.06-1.63-3.186-5.37 4.836s-.006-.007-.528.472h-.015l.004.01-.003.003-.002-.004a14.353 14.353 0 0 0-2.803.107v-.002c-1.205.217-2.224.373-2.71.277-1.762-.344-2.18-2.226-2.977-3.32-.455-.621-1.368-.693-1.445-1.226.251-.046.49-.12.702-.22.969-.464 1.305-.9 1.567-1.488.334-.747-.023-1.976-.52-2.994.401-.291 1.9-1.465 1.84-1.665-.019-.074-1.884.184-2.667.336a1.922 1.922 0 0 0-.316-.317c-.639-.471-1.163-.951-2.67-.319-2.577 1.081-2.443 3.099-1.588 4.895.394.832 1.084 1.356 1.834 1.62-.056.106-.084.166-.113.22l.07-.18c-4.068 3.685-13.568 9.889-16.07 10.013 2.072.81 8.034.922 10.534-.576-.702 2.866-.744 5.692.46 7.093-.925.689-1.88 1.43-2.34 1.881-.363.354-.253.535.058.935 0 0 2.418.045 3.136-.64.192-.182.36-.349.51-.503l3.338 2.368-.314 3.383a8.891 8.891 0 0 0-5.205 1.704c-4.058 2.927-4.989 8.62-2.074 12.695a9.076 9.076 0 0 0 9.146 3.613 8.969 8.969 0 0 0 3.502-1.534c3.758-2.71 4.827-7.792 2.65-11.764l.662-.429c.665.368 1.508.35 2.166-.124.665-.48.95-1.288.806-2.044.905-.263 1.856-.572 2.915-.887 1.099-.326 1.261-.656.99-1.202-.37-.743-3.157-.071-3.516-.492l-.772-1.785 1.525-11.206 2.575 1.92c-2.105 3.072-2.195 7.264.093 10.462a9.073 9.073 0 0 0 9.147 3.613 8.98 8.98 0 0 0 3.5-1.533c4.059-2.927 4.99-8.622 2.075-12.695z"/></svg>