<?xml version="1.0" encoding="UTF-8"?>
<svg width="79px" height="57px" viewBox="0 0 79 57" version="1.1" xmlns="http://www.w3.org/2000/svg" xmlns:xlink="http://www.w3.org/1999/xlink">
    <g stroke="none" stroke-width="1" fill="none" fill-rule="evenodd">
        <g transform="translate(-20.000000, -30.000000)">
            <polygon points="0 0.259 118.774 0.259 118.774 118.554 0 118.554"></polygon>
            <polygon points="0 0.259 118.774 0.259 118.774 118.554 0 118.554"></polygon>
            <path d="M96.944,52.566 C95.213455,49.8657719 92.3058172,48.1452279 89.106,47.928 C85.9049743,47.7068841 82.7882613,49.0143235 80.703,51.453 L77.085,48.756 C77.991,48.386 79.885,47.556 80.009,47.048 C80.082,46.746 79.119,46.535 77.639,46.438 L84.423,40.273 C84.4677068,40.22692 84.4788891,40.1578296 84.451,40.1 L82.727,36.861 C82.7080686,36.8241873 82.6727369,36.7985913 82.6318577,36.7920743 C82.5909786,36.7855573 82.5494395,36.7988986 82.52,36.828 L75.461,43.233 C73.351,43.233 69.598,43.512 68.519,42.835 C66.794,41.751 66.592,40.163 65.956,39.591 C65.32,39.021 64.602,38.953 64.448,38.469 C64.4433934,38.4555707 64.4449682,38.4407911 64.4523011,38.428634 C64.459634,38.4164769 64.4719725,38.4081897 64.486,38.406 C64.819,38.32 66.669,37.802 67.093,36.516 C67.517,35.23 66.654,33.488 66.51,33.214 C66.4954889,33.1940238 66.4954889,33.1669762 66.51,33.147 L68.48,31.434 C68.4957387,31.4172394 68.4998667,31.392664 68.4904681,31.371681 C68.4810694,31.3506979 68.4599844,31.3374159 68.437,31.338 L65.547,31.688 C65.5318967,31.6969647 65.5131033,31.6969647 65.498,31.688 C65.344,31.487 64.193,30.115 61.837,31.074 C59.09,32.183 59.597,34.548 59.597,34.548 C59.963,36.996 60.815,37.48 62.207,38.282 C62.247,38.282 62.261,38.344 62.207,38.368 C61.311,39.112 52.302,46.482 43.977,49.356 C43.914906,49.3806488 43.8741394,49.4406926 43.8741394,49.5075 C43.8741394,49.5743074 43.914906,49.6343512 43.977,49.659 C46.386,50.699 53.613,50.139 55.747,48.905 C55.7655111,48.8916512 55.7904889,48.8916512 55.809,48.905 C55.8273163,48.9181176 55.8353381,48.9413809 55.829,48.963 C55.593,49.85 54.335,55.057 56.311,56.673 L56.421,56.755 L53.743,58.636 C53.4835367,58.815095 53.3812028,59.1490476 53.4957821,59.4427614 C53.6103615,59.7364752 53.9118016,59.9129134 54.224,59.869 L55.602,59.721 C56.4930634,59.6283691 57.3267516,59.2375998 57.968,58.612 L58.45,58.162 L62.343,61.04 L61.827,65.143 C57.231,64.896 53.047,67.769 51.645,72.136 C50.2443677,76.5064951 51.9801773,81.2708171 55.864,83.716 C59.7531956,86.169937 64.8063548,85.7021659 68.179,82.576 C71.5449992,79.4579301 72.3709652,74.4556298 70.186,70.421 L71.178,69.788 C71.9881173,70.5003989 73.1688836,70.5990667 74.086,70.031 C75.0019692,69.4655494 75.4362828,68.3645012 75.153,67.326 L79.273,66.126 C79.6157624,66.0347002 79.8271087,65.6910977 79.754,65.344 L79.725,65.21 C79.6584239,64.898797 79.3832444,64.6765687 79.065,64.677 L75.567,64.677 C75.546236,64.6754146 75.5279156,64.6628194 75.519,64.644 L74.469,62.278 L76.559,50.042 L79.932,52.538 C77.2260149,56.7540386 78.0390217,62.3192534 81.838,65.585 C85.6434203,68.8599042 91.2715797,68.8599042 95.077,65.585 C98.8759783,62.3192534 99.6889851,56.7540386 96.983,52.538 L96.944,52.566 Z M68.894,45.321 L73.66,45.239 L74.286,46.415 C73.1583354,46.4534256 72.032911,46.541511 70.913,46.679 C70.109,46.775 69.136,45.748 68.847,45.422 C68.8319912,45.4034519 68.8289578,45.3779369 68.8391994,45.3563869 C68.849441,45.3348368 68.8711402,45.3210759 68.895,45.321 L68.894,45.321 Z M61.668,52.427 C62.068,51.765 64.38,47.927 64.67,46.617 C64.6758018,46.5975666 64.691333,46.5825752 64.7109594,46.5774641 C64.7305858,46.5723531 64.7514564,46.5778649 64.766,46.592 C66.308,48.382 69.56,49.409 69.81,49.472 C69.82,49.477 69.83,49.477 69.839,49.472 L74.016,48.19 L74.951,48.881 L70.581,52.878 C70.1064419,52.4585595 69.5114182,52.1998992 68.881,52.139 C66.365,51.818 62.434,52.384 61.721,52.494 C61.6984576,52.4798553 61.6899,52.4511872 61.701,52.427 L61.668,52.427 Z M72.47,65.532 C72.1882967,65.5652595 71.9143516,65.6464285 71.66,65.772 L68.673,63.497 C68.6578626,63.4791052 68.6578626,63.4528948 68.673,63.435 L70.167,60.349 C70.175721,60.3303722 70.1944319,60.3184722 70.215,60.3184722 C70.2355681,60.3184722 70.254279,60.3303722 70.263,60.349 L72.72,64.188 L72.47,65.532 Z M66.134,62.197 L64.091,60.676 L68.003,57.096 L66.134,62.196 L66.134,62.197 Z M66.134,56.918 L62.954,59.826 L59.765,57.461 C61.9183714,57.4758149 64.0689084,57.3021524 66.192,56.942 L66.134,56.918 Z M63.595,61.971 L65.691,63.526 L65.441,64.212 C65.3536276,64.4456354 65.3640979,64.7046235 65.4700451,64.9304434 C65.5759922,65.1562634 65.768475,65.3298573 66.004,65.412 L70.374,67 L70.504,67.096 C70.3186652,67.5895595 70.2983148,68.1298982 70.446,68.636 L69.483,69.26 C67.9728426,67.1934712 65.73363,65.7782345 63.219,65.301 L63.595,61.971 Z M62.915,67.374 C64.8201486,67.7650459 66.5186316,68.8342374 67.695,70.383 L62.092,73.933 L62.916,67.374 L62.915,67.374 Z M65.6,81.942 C62.6862003,83.7976364 58.9137029,83.58926 56.222,81.424 C53.5352419,79.2648682 52.5386563,75.6245681 53.751,72.398 C54.9712773,69.1688265 58.1184181,67.0805293 61.568,67.211 L60.561,75.201 C60.5331717,75.4614879 60.6541817,75.7154929 60.874,75.858 C61.0960171,75.9995762 61.3799829,75.9995762 61.602,75.858 L68.419,71.539 C70.3126567,75.215771 69.085496,79.7299695 65.591,81.942 L65.601,81.942 L65.6,81.942 Z M71.57,55.776 C71.6196835,55.1955633 71.5509611,54.6110827 71.368,54.058 L75.063,50.7 L73.463,60.052 L71.57,55.776 Z M92.74,64.726 C89.5831732,66.7355817 85.4578888,66.3050704 82.784,63.687 C80.1160411,61.0757219 79.6181402,56.9624291 81.586,53.79 L87.95,58.512 C88.0937377,58.6204685 88.2747662,58.6672037 88.4530472,58.641869 C88.6313281,58.6165343 88.7921703,58.5212175 88.9,58.377 C89.0116893,58.2322018 89.0598492,58.0482835 89.03346,57.8673288 C89.0070707,57.686374 88.9083908,57.5238698 88.76,57.417 L82.386,52.701 C82.8852132,52.1407872 83.4628655,51.6557614 84.101,51.261 C86.523889,49.6442643 89.6306243,49.4607505 92.227,50.781 C94.8191165,52.0957985 96.493786,54.7134745 96.601,57.618 C96.7029778,60.5222217 95.2202856,63.252872 92.729,64.749 L92.739,64.725 L92.74,64.726 Z" fill="currentColor" fill-rule="nonzero"></path>
            <path d="M72.3,41.583 L74.652,41.717 C74.7618719,41.7246568 74.8700394,41.6866716 74.951,41.612 L80.761,36.18 C80.7921533,36.1511891 80.8029031,36.1064591 80.7882437,36.0666383 C80.7735844,36.0268175 80.7363979,35.9997343 80.694,35.998 L78.41,35.868 C78.2431745,35.8588656 78.0797587,35.9176665 77.957,36.031 L72.229,41.386 C72.1966125,41.4176082 72.1857741,41.4652727 72.201309,41.5077779 C72.2168439,41.5502831 72.2558635,41.5797255 72.301,41.583 L72.3,41.583 Z M41.54,75.618 L37.825,77.868 L34.298,75.004 L35.416,79.394 L31.798,81.803 L36.206,82.268 L37.497,86.62 L39.101,82.513 L43.519,82.796 L40.103,79.792 L41.54,75.618 Z M45.875,59.797 L42.155,62.047 L38.629,59.183 L39.747,63.573 L36.129,65.978 L40.537,66.448 L41.828,70.795 L43.438,66.693 L47.851,66.976 L44.435,63.972 L45.875,59.797 Z M28.55,68.286 L29.986,64.111 L26.272,66.361 L22.745,63.497 L23.863,67.892 L20.244,70.296 L24.653,70.762 L25.943,75.114 L27.548,71.007 L31.961,71.29 L28.55,68.286 Z" fill="currentColor" fill-rule="nonzero"></path>
        </g>
    </g>
</svg>
